<svg xmlns="http://www.w3.org/2000/svg" xmlns:xlink="http://www.w3.org/1999/xlink" width="230" zoomAndPan="magnify" viewBox="0 0 172.5 157.5" height="210" preserveAspectRatio="xMidYMid meet" version="1.0"><defs><g/><clipPath id="50e4499d59"><path d="M 46.945312 8.429688 L 124.847656 8.429688 L 124.847656 110.539062 L 46.945312 110.539062 Z M 46.945312 8.429688 " clip-rule="nonzero"/></clipPath></defs><g clip-path="url(#50e4499d59)"><path fill="#ffffff" d="M 78.867188 61.007812 C 78.652344 62.964844 78.613281 65.214844 79.804688 67.453125 C 78.789062 61.730469 82.164062 59.625 81.96875 55.332031 C 81.753906 57.378906 80.625 58.925781 78.972656 59.261719 C 77.402344 56.777344 73.804688 60.117188 71.273438 59.175781 C 71.828125 60.582031 72.980469 61.675781 74.289062 62.183594 C 74.089844 61.917969 73.976562 61.59375 73.976562 61.242188 C 73.976562 60.765625 74.183594 60.339844 74.515625 60.050781 C 74.472656 60.175781 74.449219 60.304688 74.449219 60.445312 C 74.449219 61.097656 74.980469 61.628906 75.636719 61.628906 C 76.292969 61.628906 76.824219 61.097656 76.824219 60.445312 C 76.824219 60.394531 76.820312 60.34375 76.816406 60.296875 C 77.011719 60.558594 77.128906 60.886719 77.128906 61.242188 C 77.128906 61.710938 76.921875 62.132812 76.597656 62.421875 C 77.355469 62.320312 78.296875 61.816406 78.867188 61.007812 Z M 93.132812 61.007812 C 93.34375 62.964844 93.382812 65.214844 92.191406 67.453125 C 93.210938 61.730469 89.835938 59.625 90.03125 55.332031 C 90.242188 57.378906 91.371094 58.925781 93.027344 59.261719 C 94.59375 56.777344 98.191406 60.117188 100.726562 59.175781 C 100.167969 60.582031 99.015625 61.675781 97.710938 62.183594 C 97.90625 61.917969 98.023438 61.59375 98.023438 61.242188 C 98.023438 60.765625 97.8125 60.339844 97.480469 60.050781 C 97.523438 60.175781 97.546875 60.304688 97.546875 60.445312 C 97.546875 61.097656 97.015625 61.628906 96.359375 61.628906 C 95.703125 61.628906 95.171875 61.097656 95.171875 60.445312 C 95.171875 60.394531 95.175781 60.34375 95.183594 60.296875 C 94.984375 60.558594 94.867188 60.886719 94.867188 61.242188 C 94.867188 61.710938 95.074219 62.132812 95.402344 62.421875 C 94.640625 62.320312 93.703125 61.816406 93.132812 61.007812 Z M 86 46.054688 C 84.375 42.136719 81.597656 38.867188 77.890625 36.125 C 80.898438 40.0625 82.894531 44.253906 83.730469 48.734375 C 81.867188 47.144531 78.359375 45.542969 75.078125 45.261719 C 72.878906 49.625 69.375 53.445312 65.777344 56.121094 C 64.023438 62.421875 67.023438 69.882812 72.765625 72.53125 C 74.078125 70.867188 72.621094 68.867188 71.902344 67.230469 C 73.285156 68.964844 75.113281 70.359375 74.519531 72.84375 C 74.0625 74.753906 72.417969 76.441406 72.1875 78.714844 C 73.25 79.457031 74.871094 79.921875 76.496094 80.09375 C 74.988281 80.367188 73.527344 80.394531 72.097656 80.242188 C 72.515625 82.140625 74.132812 83.652344 75.871094 84.496094 C 74.84375 84.285156 73.878906 83.976562 72.964844 83.585938 C 74.769531 87.011719 79.097656 88.617188 82.644531 86.972656 C 86.136719 85.355469 86.046875 81.117188 82.5625 79.542969 C 81.929688 79.253906 81.285156 79.109375 80.660156 78.890625 C 78.734375 78.214844 77.453125 76.691406 78.589844 74.660156 C 78.296875 75.8125 78.773438 76.835938 80.234375 76.792969 C 80.679688 76.777344 81.140625 76.707031 81.582031 76.644531 C 82.953125 76.449219 83.554688 76.566406 84.667969 77.402344 C 85.445312 77.988281 86.554688 77.988281 87.332031 77.402344 C 88.441406 76.566406 89.046875 76.449219 90.417969 76.644531 C 90.855469 76.707031 91.320312 76.777344 91.761719 76.792969 C 93.222656 76.835938 93.699219 75.8125 93.40625 74.660156 C 94.542969 76.691406 93.265625 78.214844 91.335938 78.890625 C 90.714844 79.109375 90.070312 79.253906 89.4375 79.542969 C 85.949219 81.117188 85.863281 85.355469 89.351562 86.972656 C 92.902344 88.617188 97.226562 87.011719 99.03125 83.585938 C 98.117188 83.976562 97.152344 84.285156 96.125 84.496094 C 97.867188 83.652344 99.480469 82.140625 99.898438 80.242188 C 98.46875 80.394531 97.007812 80.367188 95.503906 80.09375 C 97.125 79.921875 98.746094 79.457031 99.808594 78.714844 C 99.578125 76.441406 97.9375 74.753906 97.480469 72.84375 C 96.882812 70.359375 98.710938 68.964844 100.097656 67.230469 C 99.378906 68.867188 97.917969 70.867188 99.230469 72.53125 C 104.972656 69.882812 107.972656 62.421875 106.222656 56.121094 C 102.621094 53.445312 99.117188 49.625 96.917969 45.261719 C 93.636719 45.542969 90.128906 47.144531 88.269531 48.734375 C 89.101562 44.253906 91.097656 40.0625 94.105469 36.125 C 90.402344 38.867188 87.625 42.136719 86 46.054688 Z M 86 110.539062 C 83.277344 106.128906 74.90625 103.554688 74.8125 95.386719 C 73.660156 98.269531 73.785156 100.730469 74.261719 103.070312 C 67.460938 98.023438 64.378906 88.445312 68.449219 80.570312 C 66.375 78.054688 65.109375 75.085938 64.984375 71.484375 C 64.613281 74.835938 65.085938 77.746094 66.460938 80.183594 C 64 84.472656 63.148438 89.253906 63.65625 92.582031 C 59.738281 89.933594 56.773438 85.859375 55.054688 81.167969 C 55.15625 80.273438 55.207031 79.359375 55.207031 78.433594 C 55.207031 73.304688 53.632812 68.539062 50.941406 64.601562 L 47.28125 68.578125 C 46.332031 64.445312 47.222656 57.617188 52.109375 54.738281 C 59.03125 52.695312 65.964844 49.171875 70.746094 43.265625 C 66.15625 40.738281 62.144531 40.621094 63.246094 47.707031 C 59.472656 49.410156 55.441406 50.582031 51.71875 51.097656 C 53.707031 43.949219 58.167969 38.070312 63.570312 35.015625 L 72.714844 37.351562 L 66.527344 33.070312 C 67.761719 32.34375 69.039062 31.691406 70.347656 31.117188 L 65.683594 13.164062 L 73.9375 18.421875 C 73.390625 19.214844 73.070312 20.175781 73.070312 21.210938 C 73.070312 23.933594 75.277344 26.136719 77.996094 26.136719 C 80.714844 26.136719 82.921875 23.933594 82.921875 21.210938 C 82.921875 19.347656 81.882812 17.722656 80.351562 16.886719 L 86 8.429688 L 91.644531 16.886719 C 90.113281 17.722656 89.074219 19.347656 89.074219 21.210938 C 89.074219 23.933594 91.28125 26.136719 94 26.136719 C 96.71875 26.136719 98.925781 23.933594 98.925781 21.210938 C 98.925781 20.175781 98.605469 19.214844 98.058594 18.421875 L 106.3125 13.164062 L 101.648438 31.117188 C 102.957031 31.691406 104.234375 32.34375 105.472656 33.070312 L 99.28125 37.351562 L 108.425781 35.015625 C 113.828125 38.070312 118.289062 43.949219 120.28125 51.097656 C 116.554688 50.582031 112.523438 49.410156 108.75 47.707031 C 109.851562 40.621094 105.839844 40.738281 101.25 43.265625 C 106.035156 49.171875 112.96875 52.695312 119.886719 54.738281 C 124.773438 57.617188 125.664062 64.445312 124.714844 68.578125 L 121.054688 64.601562 C 118.363281 68.539062 116.789062 73.304688 116.789062 78.433594 C 116.789062 79.359375 116.84375 80.273438 116.941406 81.167969 C 115.222656 85.859375 112.257812 89.933594 108.339844 92.582031 C 108.851562 89.253906 107.996094 84.472656 105.535156 80.183594 C 106.910156 77.746094 107.382812 74.835938 107.011719 71.484375 C 106.886719 75.085938 105.621094 78.054688 103.550781 80.570312 C 107.617188 88.445312 104.539062 98.023438 97.734375 103.070312 C 98.214844 100.730469 98.335938 98.269531 97.183594 95.386719 C 97.09375 103.554688 88.71875 106.128906 86 110.539062 Z M 84.289062 88.125 C 82.113281 88.902344 79.484375 90.691406 77.148438 90.855469 C 80.476562 98.292969 91.519531 98.292969 94.847656 90.855469 C 92.515625 90.691406 89.882812 88.902344 87.707031 88.125 C 86.40625 87.660156 85.59375 87.660156 84.289062 88.125 " fill-opacity="1" fill-rule="evenodd"/></g><g fill="#ffffff" fill-opacity="1"><g transform="translate(38.06724, 130.369185)"><g><path d="M 0.375 0 L 0.375 -0.1875 L 0.75 -0.3125 C 1.164062 -0.445312 1.375 -0.800781 1.375 -1.375 L 1.375 -10.921875 C 1.375 -11.171875 1.347656 -11.367188 1.296875 -11.515625 C 1.242188 -11.671875 1.097656 -11.796875 0.859375 -11.890625 L 0.375 -12.109375 L 0.375 -12.296875 L 3.96875 -12.296875 L 7.421875 -3.28125 L 10.65625 -12.296875 L 14.328125 -12.296875 L 14.328125 -12.109375 L 14.03125 -12 C 13.800781 -11.914062 13.640625 -11.796875 13.546875 -11.640625 C 13.460938 -11.484375 13.421875 -11.28125 13.421875 -11.03125 L 13.421875 -1.28125 C 13.421875 -1.03125 13.453125 -0.835938 13.515625 -0.703125 C 13.578125 -0.566406 13.726562 -0.453125 13.96875 -0.359375 L 14.328125 -0.1875 L 14.328125 0 L 9.6875 0 L 9.6875 -0.1875 L 10.078125 -0.359375 C 10.316406 -0.453125 10.46875 -0.566406 10.53125 -0.703125 C 10.59375 -0.835938 10.625 -1.03125 10.625 -1.28125 L 10.625 -5.484375 L 10.65625 -10.8125 L 6.765625 0 L 5.828125 0 L 1.765625 -10.6875 L 1.828125 -6.046875 L 1.828125 -1.34375 C 1.828125 -1.070312 1.863281 -0.847656 1.9375 -0.671875 C 2.019531 -0.503906 2.179688 -0.382812 2.421875 -0.3125 L 2.828125 -0.1875 L 2.828125 0 Z M 0.375 0 "/></g></g></g><g fill="#ffffff" fill-opacity="1"><g transform="translate(54.381225, 130.369185)"><g><path d="M 0.15625 0 L 0.15625 -0.1875 L 0.609375 -0.359375 C 0.859375 -0.453125 1.050781 -0.570312 1.1875 -0.71875 C 1.320312 -0.863281 1.4375 -1.066406 1.53125 -1.328125 L 5.375 -12.34375 L 6.953125 -12.34375 L 10.734375 -1.25 C 10.835938 -0.976562 10.953125 -0.769531 11.078125 -0.625 C 11.203125 -0.476562 11.394531 -0.359375 11.65625 -0.265625 L 11.875 -0.1875 L 11.875 0 L 7.140625 0 L 7.140625 -0.1875 L 7.421875 -0.28125 C 7.679688 -0.375 7.835938 -0.507812 7.890625 -0.6875 C 7.953125 -0.875 7.941406 -1.09375 7.859375 -1.34375 L 6.984375 -4.03125 L 2.859375 -4.03125 L 1.953125 -1.390625 C 1.867188 -1.117188 1.84375 -0.898438 1.875 -0.734375 C 1.90625 -0.578125 2.050781 -0.453125 2.3125 -0.359375 L 2.71875 -0.1875 L 2.71875 0 Z M 2.984375 -4.40625 L 6.875 -4.40625 L 5 -10.203125 Z M 2.984375 -4.40625 "/></g></g></g><g fill="#ffffff" fill-opacity="1"><g transform="translate(68.066375, 130.369185)"><g><path d="M 0.1875 0 L 0.1875 -0.1875 L 0.5 -0.28125 C 0.757812 -0.363281 0.960938 -0.476562 1.109375 -0.625 C 1.265625 -0.769531 1.414062 -0.953125 1.5625 -1.171875 L 4.4375 -5.609375 L 1.171875 -11.171875 C 1.046875 -11.378906 0.941406 -11.539062 0.859375 -11.65625 C 0.773438 -11.78125 0.613281 -11.890625 0.375 -11.984375 L 0.078125 -12.109375 L 0.078125 -12.296875 L 5.0625 -12.296875 L 5.0625 -12.109375 L 4.640625 -11.984375 C 4.378906 -11.898438 4.234375 -11.765625 4.203125 -11.578125 C 4.179688 -11.390625 4.25 -11.164062 4.40625 -10.90625 L 6.3125 -7.640625 L 8.375 -10.890625 C 8.53125 -11.148438 8.625 -11.382812 8.65625 -11.59375 C 8.6875 -11.800781 8.5625 -11.941406 8.28125 -12.015625 L 7.90625 -12.109375 L 7.90625 -12.296875 L 10.5 -12.296875 L 10.5 -12.109375 L 10.015625 -11.96875 C 9.773438 -11.90625 9.585938 -11.800781 9.453125 -11.65625 C 9.328125 -11.507812 9.195312 -11.332031 9.0625 -11.125 L 6.5625 -7.234375 L 10.109375 -1.171875 C 10.242188 -0.953125 10.375 -0.78125 10.5 -0.65625 C 10.625 -0.539062 10.796875 -0.429688 11.015625 -0.328125 L 11.375 -0.1875 L 11.375 0 L 6.15625 0 L 6.15625 -0.1875 L 6.578125 -0.296875 C 6.878906 -0.367188 7.046875 -0.503906 7.078125 -0.703125 C 7.117188 -0.898438 7.054688 -1.128906 6.890625 -1.390625 L 4.671875 -5.1875 L 2.234375 -1.328125 C 2.078125 -1.078125 2.015625 -0.851562 2.046875 -0.65625 C 2.078125 -0.457031 2.207031 -0.328125 2.4375 -0.265625 L 2.703125 -0.1875 L 2.703125 0 Z M 0.1875 0 "/></g></g></g><g fill="#ffffff" fill-opacity="1"><g transform="translate(81.080334, 130.369185)"><g><path d="M 0.40625 0 L 0.40625 -0.1875 L 0.78125 -0.328125 C 1.03125 -0.421875 1.191406 -0.539062 1.265625 -0.6875 C 1.347656 -0.832031 1.390625 -1.03125 1.390625 -1.28125 L 1.390625 -11.015625 C 1.390625 -11.265625 1.351562 -11.460938 1.28125 -11.609375 C 1.207031 -11.765625 1.039062 -11.882812 0.78125 -11.96875 L 0.40625 -12.109375 L 0.40625 -12.296875 L 5.203125 -12.296875 L 5.203125 -12.109375 L 4.828125 -11.96875 C 4.578125 -11.882812 4.410156 -11.765625 4.328125 -11.609375 C 4.253906 -11.460938 4.21875 -11.265625 4.21875 -11.015625 L 4.21875 -1.28125 C 4.21875 -1.03125 4.253906 -0.832031 4.328125 -0.6875 C 4.410156 -0.550781 4.578125 -0.429688 4.828125 -0.328125 L 5.203125 -0.1875 L 5.203125 0 Z M 0.40625 0 "/></g></g></g><g fill="#ffffff" fill-opacity="1"><g transform="translate(88.258654, 130.369185)"><g><path d="M 0.375 0 L 0.375 -0.1875 L 0.75 -0.3125 C 1.164062 -0.445312 1.375 -0.800781 1.375 -1.375 L 1.375 -10.921875 C 1.375 -11.171875 1.347656 -11.367188 1.296875 -11.515625 C 1.242188 -11.671875 1.097656 -11.796875 0.859375 -11.890625 L 0.375 -12.109375 L 0.375 -12.296875 L 3.96875 -12.296875 L 7.421875 -3.28125 L 10.65625 -12.296875 L 14.328125 -12.296875 L 14.328125 -12.109375 L 14.03125 -12 C 13.800781 -11.914062 13.640625 -11.796875 13.546875 -11.640625 C 13.460938 -11.484375 13.421875 -11.28125 13.421875 -11.03125 L 13.421875 -1.28125 C 13.421875 -1.03125 13.453125 -0.835938 13.515625 -0.703125 C 13.578125 -0.566406 13.726562 -0.453125 13.96875 -0.359375 L 14.328125 -0.1875 L 14.328125 0 L 9.6875 0 L 9.6875 -0.1875 L 10.078125 -0.359375 C 10.316406 -0.453125 10.46875 -0.566406 10.53125 -0.703125 C 10.59375 -0.835938 10.625 -1.03125 10.625 -1.28125 L 10.625 -5.484375 L 10.65625 -10.8125 L 6.765625 0 L 5.828125 0 L 1.765625 -10.6875 L 1.828125 -6.046875 L 1.828125 -1.34375 C 1.828125 -1.070312 1.863281 -0.847656 1.9375 -0.671875 C 2.019531 -0.503906 2.179688 -0.382812 2.421875 -0.3125 L 2.828125 -0.1875 L 2.828125 0 Z M 0.375 0 "/></g></g></g><g fill="#ffffff" fill-opacity="1"><g transform="translate(104.572638, 130.369185)"><g><path d="M 6.25 0.328125 C 5.488281 0.328125 4.753906 0.191406 4.046875 -0.078125 C 3.347656 -0.347656 2.722656 -0.753906 2.171875 -1.296875 C 1.617188 -1.835938 1.179688 -2.507812 0.859375 -3.3125 C 0.535156 -4.125 0.375 -5.070312 0.375 -6.15625 C 0.375 -7.21875 0.535156 -8.148438 0.859375 -8.953125 C 1.179688 -9.765625 1.617188 -10.441406 2.171875 -10.984375 C 2.734375 -11.523438 3.363281 -11.9375 4.0625 -12.21875 C 4.769531 -12.5 5.5 -12.640625 6.25 -12.640625 C 7 -12.640625 7.722656 -12.503906 8.421875 -12.234375 C 9.128906 -11.972656 9.757812 -11.570312 10.3125 -11.03125 C 10.863281 -10.488281 11.300781 -9.804688 11.625 -8.984375 C 11.945312 -8.171875 12.109375 -7.226562 12.109375 -6.15625 C 12.109375 -5.09375 11.945312 -4.15625 11.625 -3.34375 C 11.300781 -2.53125 10.863281 -1.851562 10.3125 -1.3125 C 9.757812 -0.769531 9.128906 -0.359375 8.421875 -0.078125 C 7.722656 0.191406 7 0.328125 6.25 0.328125 Z M 6.25 -0.0625 C 6.925781 -0.0625 7.472656 -0.242188 7.890625 -0.609375 C 8.316406 -0.972656 8.625 -1.597656 8.8125 -2.484375 C 9.007812 -3.378906 9.109375 -4.601562 9.109375 -6.15625 C 9.109375 -7.71875 9.007812 -8.941406 8.8125 -9.828125 C 8.625 -10.722656 8.316406 -11.351562 7.890625 -11.71875 C 7.472656 -12.082031 6.925781 -12.265625 6.25 -12.265625 C 5.570312 -12.265625 5.019531 -12.082031 4.59375 -11.71875 C 4.175781 -11.351562 3.867188 -10.722656 3.671875 -9.828125 C 3.484375 -8.941406 3.390625 -7.71875 3.390625 -6.15625 C 3.390625 -4.601562 3.484375 -3.378906 3.671875 -2.484375 C 3.867188 -1.597656 4.175781 -0.972656 4.59375 -0.609375 C 5.019531 -0.242188 5.570312 -0.0625 6.25 -0.0625 Z M 6.25 -0.0625 "/></g></g></g><g fill="#ffffff" fill-opacity="1"><g transform="translate(118.630674, 130.369185)"><g><path d="M 1.96875 -13.625 C 2.425781 -13.625 2.796875 -13.457031 3.078125 -13.125 C 3.359375 -12.789062 3.5 -12.359375 3.5 -11.828125 C 3.5 -11.128906 3.289062 -10.476562 2.875 -9.875 C 2.46875 -9.28125 1.960938 -8.832031 1.359375 -8.53125 L 1.234375 -8.75 C 1.492188 -8.945312 1.722656 -9.203125 1.921875 -9.515625 C 2.128906 -9.828125 2.273438 -10.210938 2.359375 -10.671875 L 1.96875 -10.765625 C 1.53125 -10.867188 1.191406 -11.050781 0.953125 -11.3125 C 0.710938 -11.582031 0.59375 -11.90625 0.59375 -12.28125 C 0.59375 -12.675781 0.722656 -13 0.984375 -13.25 C 1.253906 -13.5 1.582031 -13.625 1.96875 -13.625 Z M 1.96875 -13.625 "/></g></g></g><g fill="#ffffff" fill-opacity="1"><g transform="translate(124.205589, 130.369185)"><g><path d="M 4.421875 0.328125 C 3.734375 0.328125 3.035156 0.242188 2.328125 0.078125 C 1.617188 -0.0859375 1.03125 -0.304688 0.5625 -0.578125 L 0.65625 -3.109375 L 0.84375 -3.109375 L 1.421875 -1.90625 C 1.585938 -1.550781 1.769531 -1.238281 1.96875 -0.96875 C 2.175781 -0.707031 2.453125 -0.503906 2.796875 -0.359375 C 3.046875 -0.234375 3.285156 -0.144531 3.515625 -0.09375 C 3.742188 -0.0507812 4 -0.03125 4.28125 -0.03125 C 5.039062 -0.03125 5.640625 -0.234375 6.078125 -0.640625 C 6.523438 -1.054688 6.75 -1.585938 6.75 -2.234375 C 6.75 -2.847656 6.597656 -3.320312 6.296875 -3.65625 C 6.003906 -4 5.523438 -4.332031 4.859375 -4.65625 L 4.09375 -5 C 3.03125 -5.46875 2.195312 -6.007812 1.59375 -6.625 C 0.988281 -7.238281 0.6875 -8.054688 0.6875 -9.078125 C 0.6875 -9.804688 0.875 -10.4375 1.25 -10.96875 C 1.632812 -11.507812 2.164062 -11.921875 2.84375 -12.203125 C 3.519531 -12.492188 4.3125 -12.640625 5.21875 -12.640625 C 5.875 -12.640625 6.5 -12.550781 7.09375 -12.375 C 7.6875 -12.195312 8.195312 -11.960938 8.625 -11.671875 L 8.515625 -9.4375 L 8.328125 -9.4375 L 7.5625 -10.828125 C 7.351562 -11.265625 7.144531 -11.570312 6.9375 -11.75 C 6.726562 -11.925781 6.484375 -12.054688 6.203125 -12.140625 C 6.046875 -12.179688 5.898438 -12.210938 5.765625 -12.234375 C 5.628906 -12.253906 5.453125 -12.265625 5.234375 -12.265625 C 4.597656 -12.265625 4.0625 -12.082031 3.625 -11.71875 C 3.195312 -11.351562 2.984375 -10.859375 2.984375 -10.234375 C 2.984375 -9.597656 3.148438 -9.085938 3.484375 -8.703125 C 3.816406 -8.328125 4.304688 -7.992188 4.953125 -7.703125 L 5.8125 -7.328125 C 7.007812 -6.804688 7.867188 -6.25 8.390625 -5.65625 C 8.910156 -5.0625 9.171875 -4.300781 9.171875 -3.375 C 9.171875 -2.28125 8.753906 -1.390625 7.921875 -0.703125 C 7.097656 -0.015625 5.929688 0.328125 4.421875 0.328125 Z M 4.421875 0.328125 "/></g></g></g><g fill="#ffffff" fill-opacity="1"><g transform="translate(52.944007, 146.415479)"><g><path d="M 0.921875 0 L 0.921875 -5.71875 L 3.09375 -5.71875 C 3.625 -5.71875 4.046875 -5.582031 4.359375 -5.3125 C 4.671875 -5.039062 4.828125 -4.679688 4.828125 -4.234375 C 4.828125 -3.921875 4.75 -3.648438 4.59375 -3.421875 C 4.4375 -3.203125 4.222656 -3.046875 3.953125 -2.953125 C 4.285156 -2.847656 4.539062 -2.675781 4.71875 -2.4375 C 4.90625 -2.195312 5 -1.90625 5 -1.5625 C 5 -1.082031 4.832031 -0.703125 4.5 -0.421875 C 4.175781 -0.140625 3.738281 0 3.1875 0 Z M 1.421875 -0.46875 L 3.171875 -0.46875 C 3.585938 -0.46875 3.910156 -0.5625 4.140625 -0.75 C 4.367188 -0.945312 4.484375 -1.222656 4.484375 -1.578125 C 4.484375 -1.929688 4.363281 -2.203125 4.125 -2.390625 C 3.894531 -2.585938 3.566406 -2.6875 3.140625 -2.6875 L 1.421875 -2.6875 Z M 1.421875 -3.140625 L 3.078125 -3.140625 C 3.472656 -3.140625 3.78125 -3.234375 4 -3.421875 C 4.21875 -3.609375 4.328125 -3.867188 4.328125 -4.203125 C 4.328125 -4.523438 4.21875 -4.78125 4 -4.96875 C 3.78125 -5.15625 3.476562 -5.25 3.09375 -5.25 L 1.421875 -5.25 Z M 1.421875 -3.140625 "/></g></g></g><g fill="#ffffff" fill-opacity="1"><g transform="translate(59.208078, 146.415479)"><g><path d="M 0.1875 0 L 2.546875 -5.71875 L 3.03125 -5.71875 L 5.390625 0 L 4.875 0 L 4.28125 -1.4375 L 1.296875 -1.4375 L 0.71875 0 Z M 1.5 -1.890625 L 4.078125 -1.890625 L 2.78125 -5.046875 Z M 1.5 -1.890625 "/></g></g></g><g fill="#ffffff" fill-opacity="1"><g transform="translate(65.529313, 146.415479)"><g><path d="M 0.921875 0 L 0.921875 -5.71875 L 3.046875 -5.71875 C 3.429688 -5.71875 3.765625 -5.644531 4.046875 -5.5 C 4.328125 -5.351562 4.546875 -5.144531 4.703125 -4.875 C 4.859375 -4.613281 4.9375 -4.300781 4.9375 -3.9375 C 4.9375 -3.46875 4.804688 -3.078125 4.546875 -2.765625 C 4.285156 -2.453125 3.929688 -2.257812 3.484375 -2.1875 L 5.03125 0 L 4.4375 0 L 2.90625 -2.15625 L 1.421875 -2.15625 L 1.421875 0 Z M 1.421875 -2.625 L 2.984375 -2.625 C 3.441406 -2.625 3.796875 -2.738281 4.046875 -2.96875 C 4.304688 -3.207031 4.4375 -3.53125 4.4375 -3.9375 C 4.4375 -4.34375 4.304688 -4.660156 4.046875 -4.890625 C 3.796875 -5.128906 3.441406 -5.25 2.984375 -5.25 L 1.421875 -5.25 Z M 1.421875 -2.625 "/></g></g></g><g fill="#ffffff" fill-opacity="1"><g transform="translate(71.858717, 146.415479)"><g><path d="M 0.921875 0 L 0.921875 -5.71875 L 3.09375 -5.71875 C 3.625 -5.71875 4.046875 -5.582031 4.359375 -5.3125 C 4.671875 -5.039062 4.828125 -4.679688 4.828125 -4.234375 C 4.828125 -3.921875 4.75 -3.648438 4.59375 -3.421875 C 4.4375 -3.203125 4.222656 -3.046875 3.953125 -2.953125 C 4.285156 -2.847656 4.539062 -2.675781 4.71875 -2.4375 C 4.90625 -2.195312 5 -1.90625 5 -1.5625 C 5 -1.082031 4.832031 -0.703125 4.5 -0.421875 C 4.175781 -0.140625 3.738281 0 3.1875 0 Z M 1.421875 -0.46875 L 3.171875 -0.46875 C 3.585938 -0.46875 3.910156 -0.5625 4.140625 -0.75 C 4.367188 -0.945312 4.484375 -1.222656 4.484375 -1.578125 C 4.484375 -1.929688 4.363281 -2.203125 4.125 -2.390625 C 3.894531 -2.585938 3.566406 -2.6875 3.140625 -2.6875 L 1.421875 -2.6875 Z M 1.421875 -3.140625 L 3.078125 -3.140625 C 3.472656 -3.140625 3.78125 -3.234375 4 -3.421875 C 4.21875 -3.609375 4.328125 -3.867188 4.328125 -4.203125 C 4.328125 -4.523438 4.21875 -4.78125 4 -4.96875 C 3.78125 -5.15625 3.476562 -5.25 3.09375 -5.25 L 1.421875 -5.25 Z M 1.421875 -3.140625 "/></g></g></g><g fill="#ffffff" fill-opacity="1"><g transform="translate(78.122789, 146.415479)"><g><path d="M 0.921875 0 L 0.921875 -5.71875 L 4.296875 -5.71875 L 4.296875 -5.25 L 1.421875 -5.25 L 1.421875 -3.140625 L 4.078125 -3.140625 L 4.078125 -2.6875 L 1.421875 -2.6875 L 1.421875 -0.46875 L 4.375 -0.46875 L 4.375 0 Z M 0.921875 0 "/></g></g></g><g fill="#ffffff" fill-opacity="1"><g transform="translate(83.839684, 146.415479)"><g><path d="M 0.921875 0 L 0.921875 -5.71875 L 3.046875 -5.71875 C 3.429688 -5.71875 3.765625 -5.644531 4.046875 -5.5 C 4.328125 -5.351562 4.546875 -5.144531 4.703125 -4.875 C 4.859375 -4.613281 4.9375 -4.300781 4.9375 -3.9375 C 4.9375 -3.46875 4.804688 -3.078125 4.546875 -2.765625 C 4.285156 -2.453125 3.929688 -2.257812 3.484375 -2.1875 L 5.03125 0 L 4.4375 0 L 2.90625 -2.15625 L 1.421875 -2.15625 L 1.421875 0 Z M 1.421875 -2.625 L 2.984375 -2.625 C 3.441406 -2.625 3.796875 -2.738281 4.046875 -2.96875 C 4.304688 -3.207031 4.4375 -3.53125 4.4375 -3.9375 C 4.4375 -4.34375 4.304688 -4.660156 4.046875 -4.890625 C 3.796875 -5.128906 3.441406 -5.25 2.984375 -5.25 L 1.421875 -5.25 Z M 1.421875 -2.625 "/></g></g></g><g fill="#ffffff" fill-opacity="1"><g transform="translate(90.169087, 146.415479)"><g/></g></g><g fill="#ffffff" fill-opacity="1"><g transform="translate(93.101107, 146.415479)"><g><path d="M 2.765625 0.109375 C 2.328125 0.109375 1.945312 0.0351562 1.625 -0.109375 C 1.300781 -0.253906 1.046875 -0.460938 0.859375 -0.734375 C 0.679688 -1.015625 0.585938 -1.335938 0.578125 -1.703125 L 1.0625 -1.703125 C 1.09375 -1.285156 1.257812 -0.957031 1.5625 -0.71875 C 1.863281 -0.488281 2.265625 -0.375 2.765625 -0.375 C 3.234375 -0.375 3.601562 -0.46875 3.875 -0.65625 C 4.144531 -0.851562 4.28125 -1.117188 4.28125 -1.453125 C 4.28125 -1.742188 4.15625 -1.984375 3.90625 -2.171875 C 3.65625 -2.359375 3.238281 -2.515625 2.65625 -2.640625 C 1.957031 -2.804688 1.445312 -3.015625 1.125 -3.265625 C 0.8125 -3.523438 0.65625 -3.875 0.65625 -4.3125 C 0.65625 -4.769531 0.828125 -5.132812 1.171875 -5.40625 C 1.523438 -5.6875 2.007812 -5.828125 2.625 -5.828125 C 3.257812 -5.828125 3.753906 -5.671875 4.109375 -5.359375 C 4.472656 -5.054688 4.664062 -4.628906 4.6875 -4.078125 L 4.203125 -4.078125 C 4.179688 -4.484375 4.03125 -4.796875 3.75 -5.015625 C 3.476562 -5.242188 3.101562 -5.359375 2.625 -5.359375 C 2.15625 -5.359375 1.789062 -5.257812 1.53125 -5.0625 C 1.28125 -4.875 1.15625 -4.625 1.15625 -4.3125 C 1.15625 -4.019531 1.273438 -3.78125 1.515625 -3.59375 C 1.765625 -3.40625 2.1875 -3.242188 2.78125 -3.109375 C 3.507812 -2.941406 4.023438 -2.722656 4.328125 -2.453125 C 4.628906 -2.191406 4.78125 -1.859375 4.78125 -1.453125 C 4.78125 -0.972656 4.597656 -0.59375 4.234375 -0.3125 C 3.867188 -0.03125 3.378906 0.109375 2.765625 0.109375 Z M 2.765625 0.109375 "/></g></g></g><g fill="#ffffff" fill-opacity="1"><g transform="translate(99.210007, 146.415479)"><g><path d="M 4.765625 0 L 4.765625 -2.6875 L 1.421875 -2.6875 L 1.421875 0 L 0.921875 0 L 0.921875 -5.71875 L 1.421875 -5.71875 L 1.421875 -3.15625 L 4.765625 -3.15625 L 4.765625 -5.71875 L 5.265625 -5.71875 L 5.265625 0 Z M 4.765625 0 "/></g></g></g><g fill="#ffffff" fill-opacity="1"><g transform="translate(106.143751, 146.415479)"><g><path d="M 3.46875 0.109375 C 2.894531 0.109375 2.382812 -0.015625 1.9375 -0.265625 C 1.5 -0.515625 1.148438 -0.863281 0.890625 -1.3125 C 0.640625 -1.757812 0.515625 -2.273438 0.515625 -2.859375 C 0.515625 -3.441406 0.640625 -3.957031 0.890625 -4.40625 C 1.148438 -4.851562 1.5 -5.203125 1.9375 -5.453125 C 2.382812 -5.703125 2.894531 -5.828125 3.46875 -5.828125 C 4.050781 -5.828125 4.5625 -5.703125 5 -5.453125 C 5.445312 -5.203125 5.796875 -4.851562 6.046875 -4.40625 C 6.296875 -3.957031 6.421875 -3.441406 6.421875 -2.859375 C 6.421875 -2.273438 6.296875 -1.757812 6.046875 -1.3125 C 5.796875 -0.863281 5.445312 -0.515625 5 -0.265625 C 4.5625 -0.015625 4.050781 0.109375 3.46875 0.109375 Z M 1.03125 -2.859375 C 1.03125 -2.378906 1.132812 -1.953125 1.34375 -1.578125 C 1.550781 -1.203125 1.835938 -0.910156 2.203125 -0.703125 C 2.566406 -0.492188 2.988281 -0.390625 3.46875 -0.390625 C 3.957031 -0.390625 4.382812 -0.492188 4.75 -0.703125 C 5.113281 -0.910156 5.398438 -1.203125 5.609375 -1.578125 C 5.816406 -1.953125 5.921875 -2.378906 5.921875 -2.859375 C 5.921875 -3.347656 5.816406 -3.773438 5.609375 -4.140625 C 5.398438 -4.515625 5.113281 -4.804688 4.75 -5.015625 C 4.382812 -5.222656 3.957031 -5.328125 3.46875 -5.328125 C 2.988281 -5.328125 2.566406 -5.222656 2.203125 -5.015625 C 1.835938 -4.804688 1.550781 -4.515625 1.34375 -4.140625 C 1.132812 -3.773438 1.03125 -3.347656 1.03125 -2.859375 Z M 1.03125 -2.859375 "/></g></g></g><g fill="#ffffff" fill-opacity="1"><g transform="translate(113.828836, 146.415479)"><g><path d="M 0.921875 0 L 0.921875 -5.71875 L 2.734375 -5.71875 C 3.398438 -5.71875 3.914062 -5.550781 4.28125 -5.21875 C 4.65625 -4.894531 4.84375 -4.4375 4.84375 -3.84375 C 4.84375 -3.25 4.65625 -2.785156 4.28125 -2.453125 C 3.914062 -2.128906 3.398438 -1.96875 2.734375 -1.96875 L 1.421875 -1.96875 L 1.421875 0 Z M 1.421875 -2.421875 L 2.734375 -2.421875 C 3.804688 -2.421875 4.34375 -2.890625 4.34375 -3.828125 C 4.34375 -4.773438 3.804688 -5.25 2.734375 -5.25 L 1.421875 -5.25 Z M 1.421875 -2.421875 "/></g></g></g><path stroke-linecap="butt" transform="matrix(1.011761, 0, 0, 1.011761, 19.374449, 135.33399)" fill="none" stroke-linejoin="miter" d="M 0.000544981 0.499973 L 131.705444 0.499973 " stroke="#ffffff" stroke-width="1" stroke-opacity="1" stroke-miterlimit="4"/></svg>