<svg xmlns="http://www.w3.org/2000/svg" xmlns:xlink="http://www.w3.org/1999/xlink" width="500" zoomAndPan="magnify" viewBox="0 0 375 374.999991" height="500" preserveAspectRatio="xMidYMid meet" version="1.0"><defs><g/><clipPath id="01dd5bd362"><path d="M 121.855469 49.167969 L 237.734375 49.167969 L 237.734375 200.480469 L 121.855469 200.480469 Z M 121.855469 49.167969 " clip-rule="nonzero"/></clipPath></defs><g clip-path="url(#01dd5bd362)"><path fill="#000000" d="M 169.210938 127.175781 C 168.894531 130.082031 168.835938 133.414062 170.605469 136.734375 C 169.097656 128.246094 174.105469 125.125 173.8125 118.757812 C 173.496094 121.792969 171.824219 124.085938 169.367188 124.582031 C 167.039062 120.898438 161.707031 125.855469 157.945312 124.453125 C 158.769531 126.539062 160.480469 128.167969 162.417969 128.917969 C 162.128906 128.527344 161.957031 128.042969 161.957031 127.519531 C 161.957031 126.816406 162.265625 126.183594 162.757812 125.757812 C 162.695312 125.9375 162.660156 126.132812 162.660156 126.335938 C 162.660156 127.3125 163.449219 128.097656 164.421875 128.097656 C 165.394531 128.097656 166.183594 127.3125 166.183594 126.335938 C 166.183594 126.261719 166.179688 126.191406 166.167969 126.121094 C 166.460938 126.507812 166.636719 126.996094 166.636719 127.519531 C 166.636719 128.21875 166.328125 128.847656 165.84375 129.273438 C 166.96875 129.125 168.367188 128.378906 169.210938 127.175781 Z M 190.375 127.175781 C 190.695312 130.082031 190.75 133.414062 188.980469 136.734375 C 190.492188 128.246094 185.484375 125.125 185.777344 118.757812 C 186.09375 121.792969 187.765625 124.085938 190.21875 124.582031 C 192.546875 120.898438 197.882812 125.855469 201.644531 124.453125 C 200.820312 126.539062 199.109375 128.167969 197.167969 128.917969 C 197.460938 128.527344 197.632812 128.042969 197.632812 127.519531 C 197.632812 126.816406 197.320312 126.183594 196.832031 125.757812 C 196.894531 125.9375 196.929688 126.132812 196.929688 126.335938 C 196.929688 127.3125 196.140625 128.097656 195.167969 128.097656 C 194.195312 128.097656 193.40625 127.3125 193.40625 126.335938 C 193.40625 126.261719 193.410156 126.191406 193.417969 126.121094 C 193.125 126.507812 192.953125 126.996094 192.953125 127.519531 C 192.953125 128.21875 193.257812 128.847656 193.746094 129.273438 C 192.617188 129.125 191.222656 128.378906 190.375 127.175781 Z M 179.792969 104.988281 C 177.382812 99.175781 173.265625 94.328125 167.765625 90.257812 C 172.226562 96.101562 175.1875 102.316406 176.425781 108.964844 C 173.664062 106.605469 168.464844 104.230469 163.59375 103.8125 C 160.328125 110.289062 155.132812 115.953125 149.792969 119.925781 C 147.195312 129.273438 151.644531 140.339844 160.164062 144.273438 C 162.109375 141.804688 159.945312 138.832031 158.878906 136.40625 C 160.933594 138.980469 163.644531 141.050781 162.761719 144.734375 C 162.082031 147.566406 159.644531 150.074219 159.304688 153.449219 C 160.882812 154.546875 163.289062 155.238281 165.691406 155.492188 C 163.460938 155.894531 161.292969 155.941406 159.167969 155.710938 C 159.792969 158.527344 162.1875 160.769531 164.769531 162.023438 C 163.246094 161.710938 161.8125 161.25 160.457031 160.671875 C 163.136719 165.757812 169.554688 168.136719 174.816406 165.699219 C 179.996094 163.300781 179.867188 157.011719 174.695312 154.671875 C 173.753906 154.246094 172.800781 154.03125 171.875 153.707031 C 169.015625 152.707031 167.117188 150.441406 168.800781 147.433594 C 168.367188 149.140625 169.074219 150.660156 171.246094 150.589844 C 171.902344 150.570312 172.589844 150.464844 173.242188 150.375 C 175.273438 150.082031 176.171875 150.257812 177.816406 151.5 C 178.972656 152.371094 180.617188 152.371094 181.773438 151.5 C 183.417969 150.257812 184.316406 150.082031 186.347656 150.375 C 187 150.464844 187.6875 150.570312 188.34375 150.589844 C 190.515625 150.660156 191.21875 149.140625 190.785156 147.433594 C 192.472656 150.441406 190.574219 152.707031 187.710938 153.707031 C 186.789062 154.03125 185.832031 154.246094 184.894531 154.671875 C 179.722656 157.011719 179.589844 163.300781 184.769531 165.699219 C 190.035156 168.136719 196.453125 165.757812 199.128906 160.671875 C 197.773438 161.25 196.34375 161.710938 194.820312 162.023438 C 197.402344 160.769531 199.796875 158.527344 200.417969 155.710938 C 198.296875 155.941406 196.128906 155.894531 193.894531 155.492188 C 196.300781 155.238281 198.707031 154.546875 200.28125 153.449219 C 199.941406 150.074219 197.503906 147.566406 196.828125 144.734375 C 195.945312 141.050781 198.652344 138.980469 200.710938 136.40625 C 199.644531 138.832031 197.476562 141.804688 199.425781 144.273438 C 207.945312 140.339844 212.394531 129.273438 209.796875 119.925781 C 204.457031 115.953125 199.261719 110.289062 195.996094 103.8125 C 191.125 104.230469 185.921875 106.605469 183.160156 108.964844 C 184.398438 102.316406 187.363281 96.101562 191.820312 90.257812 C 186.324219 94.328125 182.207031 99.175781 179.792969 104.988281 Z M 179.792969 200.65625 C 175.757812 194.117188 163.335938 190.300781 163.199219 178.179688 C 161.492188 182.460938 161.671875 186.109375 162.382812 189.582031 C 152.289062 182.089844 147.71875 167.882812 153.757812 156.199219 C 150.679688 152.464844 148.804688 148.0625 148.617188 142.71875 C 148.070312 147.691406 148.765625 152.007812 150.808594 155.625 C 147.15625 161.988281 145.890625 169.082031 146.648438 174.019531 C 140.835938 170.089844 136.4375 164.046875 133.886719 157.089844 C 134.035156 155.757812 134.109375 154.402344 134.109375 153.03125 C 134.109375 145.417969 131.777344 138.351562 127.785156 132.503906 L 122.351562 138.40625 C 120.945312 132.273438 122.269531 122.144531 129.515625 117.871094 C 139.78125 114.84375 150.070312 109.613281 157.164062 100.851562 C 150.355469 97.101562 144.40625 96.929688 146.039062 107.441406 C 140.441406 109.96875 134.460938 111.707031 128.933594 112.472656 C 131.886719 101.867188 138.503906 93.144531 146.519531 88.609375 L 160.089844 92.078125 L 150.902344 85.726562 C 152.738281 84.648438 154.632812 83.683594 156.574219 82.832031 L 149.65625 56.191406 L 161.902344 63.992188 C 161.089844 65.171875 160.617188 66.597656 160.617188 68.132812 C 160.617188 72.167969 163.886719 75.4375 167.921875 75.4375 C 171.957031 75.4375 175.226562 72.167969 175.226562 68.132812 C 175.226562 65.363281 173.6875 62.953125 171.417969 61.714844 L 179.792969 49.167969 L 188.171875 61.714844 C 185.902344 62.953125 184.359375 65.363281 184.359375 68.132812 C 184.359375 72.167969 187.632812 75.4375 191.667969 75.4375 C 195.703125 75.4375 198.972656 72.167969 198.972656 68.132812 C 198.972656 66.597656 198.5 65.171875 197.6875 63.992188 L 209.933594 56.191406 L 203.011719 82.832031 C 204.957031 83.683594 206.851562 84.648438 208.683594 85.726562 L 199.5 92.078125 L 213.070312 88.609375 C 221.085938 93.144531 227.703125 101.867188 230.65625 112.472656 C 225.128906 111.707031 219.148438 109.96875 213.550781 107.441406 C 215.183594 96.929688 209.234375 97.101562 202.421875 100.851562 C 209.519531 109.613281 219.804688 114.84375 230.074219 117.871094 C 237.320312 122.144531 238.644531 132.273438 237.234375 138.40625 L 231.804688 132.503906 C 227.8125 138.351562 225.476562 145.417969 225.476562 153.03125 C 225.476562 154.402344 225.554688 155.757812 225.703125 157.089844 C 223.152344 164.046875 218.753906 170.089844 212.941406 174.019531 C 213.699219 169.082031 212.433594 161.988281 208.78125 155.625 C 210.820312 152.007812 211.519531 147.691406 210.972656 142.71875 C 210.785156 148.0625 208.90625 152.464844 205.832031 156.199219 C 211.871094 167.882812 207.300781 182.089844 197.207031 189.582031 C 197.914062 186.109375 198.097656 182.460938 196.390625 178.179688 C 196.253906 190.300781 183.828125 194.117188 179.792969 200.65625 Z M 177.257812 167.410156 C 174.03125 168.5625 170.128906 171.214844 166.664062 171.457031 C 171.601562 182.488281 187.984375 182.488281 192.925781 171.457031 C 189.460938 171.214844 185.554688 168.5625 182.332031 167.410156 C 180.398438 166.71875 179.191406 166.71875 177.257812 167.410156 " fill-opacity="1" fill-rule="evenodd"/></g><g fill="#000000" fill-opacity="1"><g transform="translate(108.686027, 229.829543)"><g><path d="M 0.546875 0 L 0.546875 -0.28125 L 1.109375 -0.46875 C 1.734375 -0.675781 2.046875 -1.203125 2.046875 -2.046875 L 2.046875 -16.203125 C 2.046875 -16.578125 2.003906 -16.875 1.921875 -17.09375 C 1.835938 -17.3125 1.617188 -17.492188 1.265625 -17.640625 L 0.546875 -17.984375 L 0.546875 -18.25 L 5.890625 -18.25 L 11 -4.875 L 15.8125 -18.25 L 21.265625 -18.25 L 21.265625 -17.984375 L 20.828125 -17.8125 C 20.472656 -17.675781 20.226562 -17.492188 20.09375 -17.265625 C 19.96875 -17.035156 19.90625 -16.738281 19.90625 -16.375 L 19.90625 -1.90625 C 19.90625 -1.539062 19.953125 -1.253906 20.046875 -1.046875 C 20.140625 -0.847656 20.363281 -0.675781 20.71875 -0.53125 L 21.265625 -0.28125 L 21.265625 0 L 14.375 0 L 14.375 -0.28125 L 14.96875 -0.53125 C 15.3125 -0.675781 15.53125 -0.847656 15.625 -1.046875 C 15.71875 -1.253906 15.765625 -1.539062 15.765625 -1.90625 L 15.765625 -8.125 L 15.8125 -16.046875 L 10.046875 0 L 8.65625 0 L 2.625 -15.84375 L 2.703125 -8.953125 L 2.703125 -1.984375 C 2.703125 -1.585938 2.757812 -1.265625 2.875 -1.015625 C 3 -0.765625 3.238281 -0.582031 3.59375 -0.46875 L 4.203125 -0.28125 L 4.203125 0 Z M 0.546875 0 "/></g></g></g><g fill="#000000" fill-opacity="1"><g transform="translate(132.889597, 229.829543)"><g><path d="M 0.21875 0 L 0.21875 -0.28125 L 0.90625 -0.53125 C 1.28125 -0.675781 1.566406 -0.851562 1.765625 -1.0625 C 1.972656 -1.28125 2.140625 -1.582031 2.265625 -1.96875 L 7.96875 -18.3125 L 10.3125 -18.3125 L 15.9375 -1.859375 C 16.082031 -1.453125 16.242188 -1.140625 16.421875 -0.921875 C 16.609375 -0.710938 16.894531 -0.535156 17.28125 -0.390625 L 17.609375 -0.28125 L 17.609375 0 L 10.59375 0 L 10.59375 -0.28125 L 11 -0.421875 C 11.394531 -0.566406 11.632812 -0.769531 11.71875 -1.03125 C 11.800781 -1.300781 11.785156 -1.617188 11.671875 -1.984375 L 10.375 -5.96875 L 4.234375 -5.96875 L 2.90625 -2.078125 C 2.769531 -1.671875 2.722656 -1.347656 2.765625 -1.109375 C 2.816406 -0.867188 3.035156 -0.675781 3.421875 -0.53125 L 4.03125 -0.28125 L 4.03125 0 Z M 4.421875 -6.53125 L 10.203125 -6.53125 L 7.40625 -15.125 Z M 4.421875 -6.53125 "/></g></g></g><g fill="#000000" fill-opacity="1"><g transform="translate(153.193028, 229.829543)"><g><path d="M 0.28125 0 L 0.28125 -0.28125 L 0.75 -0.421875 C 1.132812 -0.546875 1.4375 -0.710938 1.65625 -0.921875 C 1.875 -1.140625 2.097656 -1.414062 2.328125 -1.75 L 6.578125 -8.328125 L 1.75 -16.5625 C 1.5625 -16.875 1.398438 -17.117188 1.265625 -17.296875 C 1.140625 -17.472656 0.898438 -17.632812 0.546875 -17.78125 L 0.109375 -17.984375 L 0.109375 -18.25 L 7.515625 -18.25 L 7.515625 -17.984375 L 6.890625 -17.78125 C 6.503906 -17.65625 6.289062 -17.453125 6.25 -17.171875 C 6.207031 -16.898438 6.300781 -16.566406 6.53125 -16.171875 L 9.375 -11.34375 L 12.421875 -16.15625 C 12.660156 -16.539062 12.800781 -16.890625 12.84375 -17.203125 C 12.894531 -17.515625 12.707031 -17.726562 12.28125 -17.84375 L 11.71875 -17.984375 L 11.71875 -18.25 L 15.578125 -18.25 L 15.578125 -17.984375 L 14.84375 -17.75 C 14.5 -17.65625 14.226562 -17.503906 14.03125 -17.296875 C 13.84375 -17.085938 13.644531 -16.828125 13.4375 -16.515625 L 9.734375 -10.734375 L 14.984375 -1.75 C 15.191406 -1.414062 15.382812 -1.160156 15.5625 -0.984375 C 15.75 -0.804688 16.007812 -0.644531 16.34375 -0.5 L 16.875 -0.28125 L 16.875 0 L 9.125 0 L 9.125 -0.28125 L 9.765625 -0.4375 C 10.203125 -0.550781 10.445312 -0.753906 10.5 -1.046875 C 10.5625 -1.347656 10.472656 -1.691406 10.234375 -2.078125 L 6.9375 -7.6875 L 3.3125 -1.96875 C 3.070312 -1.59375 2.972656 -1.257812 3.015625 -0.96875 C 3.066406 -0.675781 3.269531 -0.484375 3.625 -0.390625 L 4.015625 -0.28125 L 4.015625 0 Z M 0.28125 0 "/></g></g></g><g fill="#000000" fill-opacity="1"><g transform="translate(172.50068, 229.829543)"><g><path d="M 0.609375 0 L 0.609375 -0.28125 L 1.15625 -0.5 C 1.53125 -0.625 1.773438 -0.796875 1.890625 -1.015625 C 2.015625 -1.242188 2.078125 -1.539062 2.078125 -1.90625 L 2.078125 -16.34375 C 2.078125 -16.707031 2.019531 -17 1.90625 -17.21875 C 1.800781 -17.445312 1.550781 -17.625 1.15625 -17.75 L 0.609375 -17.984375 L 0.609375 -18.25 L 7.71875 -18.25 L 7.71875 -17.984375 L 7.15625 -17.75 C 6.789062 -17.625 6.546875 -17.445312 6.421875 -17.21875 C 6.304688 -17 6.25 -16.707031 6.25 -16.34375 L 6.25 -1.90625 C 6.25 -1.539062 6.304688 -1.25 6.421875 -1.03125 C 6.546875 -0.820312 6.789062 -0.644531 7.15625 -0.5 L 7.71875 -0.28125 L 7.71875 0 Z M 0.609375 0 "/></g></g></g><g fill="#000000" fill-opacity="1"><g transform="translate(183.150568, 229.829543)"><g><path d="M 0.546875 0 L 0.546875 -0.28125 L 1.109375 -0.46875 C 1.734375 -0.675781 2.046875 -1.203125 2.046875 -2.046875 L 2.046875 -16.203125 C 2.046875 -16.578125 2.003906 -16.875 1.921875 -17.09375 C 1.835938 -17.3125 1.617188 -17.492188 1.265625 -17.640625 L 0.546875 -17.984375 L 0.546875 -18.25 L 5.890625 -18.25 L 11 -4.875 L 15.8125 -18.25 L 21.265625 -18.25 L 21.265625 -17.984375 L 20.828125 -17.8125 C 20.472656 -17.675781 20.226562 -17.492188 20.09375 -17.265625 C 19.96875 -17.035156 19.90625 -16.738281 19.90625 -16.375 L 19.90625 -1.90625 C 19.90625 -1.539062 19.953125 -1.253906 20.046875 -1.046875 C 20.140625 -0.847656 20.363281 -0.675781 20.71875 -0.53125 L 21.265625 -0.28125 L 21.265625 0 L 14.375 0 L 14.375 -0.28125 L 14.96875 -0.53125 C 15.3125 -0.675781 15.53125 -0.847656 15.625 -1.046875 C 15.71875 -1.253906 15.765625 -1.539062 15.765625 -1.90625 L 15.765625 -8.125 L 15.8125 -16.046875 L 10.046875 0 L 8.65625 0 L 2.625 -15.84375 L 2.703125 -8.953125 L 2.703125 -1.984375 C 2.703125 -1.585938 2.757812 -1.265625 2.875 -1.015625 C 3 -0.765625 3.238281 -0.582031 3.59375 -0.46875 L 4.203125 -0.28125 L 4.203125 0 Z M 0.546875 0 "/></g></g></g><g fill="#000000" fill-opacity="1"><g transform="translate(207.354141, 229.829543)"><g><path d="M 9.265625 0.5 C 8.140625 0.5 7.054688 0.296875 6.015625 -0.109375 C 4.972656 -0.515625 4.039062 -1.117188 3.21875 -1.921875 C 2.394531 -2.722656 1.742188 -3.722656 1.265625 -4.921875 C 0.785156 -6.117188 0.546875 -7.519531 0.546875 -9.125 C 0.546875 -10.707031 0.785156 -12.097656 1.265625 -13.296875 C 1.742188 -14.492188 2.398438 -15.492188 3.234375 -16.296875 C 4.066406 -17.097656 5.003906 -17.707031 6.046875 -18.125 C 7.085938 -18.539062 8.160156 -18.75 9.265625 -18.75 C 10.390625 -18.75 11.472656 -18.550781 12.515625 -18.15625 C 13.554688 -17.757812 14.484375 -17.160156 15.296875 -16.359375 C 16.117188 -15.554688 16.769531 -14.550781 17.25 -13.34375 C 17.738281 -12.132812 17.984375 -10.726562 17.984375 -9.125 C 17.984375 -7.5625 17.738281 -6.175781 17.25 -4.96875 C 16.769531 -3.757812 16.117188 -2.753906 15.296875 -1.953125 C 14.484375 -1.148438 13.554688 -0.539062 12.515625 -0.125 C 11.472656 0.289062 10.390625 0.5 9.265625 0.5 Z M 9.265625 -0.078125 C 10.273438 -0.078125 11.09375 -0.347656 11.71875 -0.890625 C 12.351562 -1.441406 12.8125 -2.375 13.09375 -3.6875 C 13.382812 -5.007812 13.53125 -6.820312 13.53125 -9.125 C 13.53125 -11.445312 13.382812 -13.265625 13.09375 -14.578125 C 12.8125 -15.898438 12.351562 -16.832031 11.71875 -17.375 C 11.09375 -17.925781 10.273438 -18.203125 9.265625 -18.203125 C 8.265625 -18.203125 7.453125 -17.925781 6.828125 -17.375 C 6.203125 -16.832031 5.742188 -15.898438 5.453125 -14.578125 C 5.171875 -13.265625 5.03125 -11.445312 5.03125 -9.125 C 5.03125 -6.820312 5.171875 -5.007812 5.453125 -3.6875 C 5.742188 -2.375 6.203125 -1.441406 6.828125 -0.890625 C 7.453125 -0.347656 8.265625 -0.078125 9.265625 -0.078125 Z M 9.265625 -0.078125 "/></g></g></g><g fill="#000000" fill-opacity="1"><g transform="translate(228.210788, 229.829543)"><g><path d="M 2.9375 -20.21875 C 3.625 -20.21875 4.171875 -19.972656 4.578125 -19.484375 C 4.992188 -19.003906 5.203125 -18.363281 5.203125 -17.5625 C 5.203125 -16.53125 4.894531 -15.566406 4.28125 -14.671875 C 3.675781 -13.785156 2.925781 -13.117188 2.03125 -12.671875 L 1.859375 -13 C 2.242188 -13.300781 2.582031 -13.679688 2.875 -14.140625 C 3.175781 -14.597656 3.390625 -15.171875 3.515625 -15.859375 L 2.9375 -16 C 2.289062 -16.144531 1.785156 -16.414062 1.421875 -16.8125 C 1.066406 -17.207031 0.890625 -17.679688 0.890625 -18.234375 C 0.890625 -18.828125 1.085938 -19.304688 1.484375 -19.671875 C 1.878906 -20.035156 2.363281 -20.21875 2.9375 -20.21875 Z M 2.9375 -20.21875 "/></g></g></g><g fill="#000000" fill-opacity="1"><g transform="translate(236.481868, 229.829543)"><g><path d="M 6.546875 0.5 C 5.535156 0.5 4.503906 0.375 3.453125 0.125 C 2.398438 -0.125 1.523438 -0.453125 0.828125 -0.859375 L 0.96875 -4.625 L 1.25 -4.625 L 2.109375 -2.828125 C 2.359375 -2.304688 2.628906 -1.847656 2.921875 -1.453125 C 3.222656 -1.054688 3.632812 -0.75 4.15625 -0.53125 C 4.519531 -0.34375 4.867188 -0.21875 5.203125 -0.15625 C 5.546875 -0.09375 5.929688 -0.0625 6.359375 -0.0625 C 7.484375 -0.0625 8.375 -0.363281 9.03125 -0.96875 C 9.6875 -1.570312 10.015625 -2.351562 10.015625 -3.3125 C 10.015625 -4.21875 9.789062 -4.921875 9.34375 -5.421875 C 8.90625 -5.929688 8.195312 -6.429688 7.21875 -6.921875 L 6.078125 -7.40625 C 4.492188 -8.113281 3.253906 -8.921875 2.359375 -9.828125 C 1.460938 -10.742188 1.015625 -11.957031 1.015625 -13.46875 C 1.015625 -14.550781 1.296875 -15.488281 1.859375 -16.28125 C 2.421875 -17.082031 3.203125 -17.691406 4.203125 -18.109375 C 5.210938 -18.535156 6.394531 -18.75 7.75 -18.75 C 8.71875 -18.75 9.640625 -18.617188 10.515625 -18.359375 C 11.398438 -18.109375 12.164062 -17.757812 12.8125 -17.3125 L 12.640625 -14 L 12.359375 -14 L 11.234375 -16.0625 C 10.921875 -16.707031 10.601562 -17.164062 10.28125 -17.4375 C 9.96875 -17.707031 9.609375 -17.894531 9.203125 -18 C 8.960938 -18.070312 8.738281 -18.125 8.53125 -18.15625 C 8.332031 -18.1875 8.078125 -18.203125 7.765625 -18.203125 C 6.828125 -18.203125 6.035156 -17.925781 5.390625 -17.375 C 4.742188 -16.832031 4.421875 -16.101562 4.421875 -15.1875 C 4.421875 -14.238281 4.671875 -13.484375 5.171875 -12.921875 C 5.671875 -12.359375 6.398438 -11.859375 7.359375 -11.421875 L 8.625 -10.875 C 10.394531 -10.09375 11.664062 -9.265625 12.4375 -8.390625 C 13.21875 -7.515625 13.609375 -6.382812 13.609375 -5 C 13.609375 -3.382812 12.992188 -2.0625 11.765625 -1.03125 C 10.535156 -0.0078125 8.796875 0.5 6.546875 0.5 Z M 6.546875 0.5 "/></g></g></g><g fill="#000000" fill-opacity="1"><g transform="translate(130.778135, 253.279245)"><g><path d="M 1.375 0 L 1.375 -8.46875 L 4.59375 -8.46875 C 5.375 -8.46875 5.992188 -8.269531 6.453125 -7.875 C 6.921875 -7.476562 7.15625 -6.941406 7.15625 -6.265625 C 7.15625 -5.804688 7.039062 -5.410156 6.8125 -5.078125 C 6.582031 -4.753906 6.257812 -4.519531 5.84375 -4.375 C 6.34375 -4.226562 6.726562 -3.976562 7 -3.625 C 7.269531 -3.269531 7.40625 -2.832031 7.40625 -2.3125 C 7.40625 -1.601562 7.160156 -1.039062 6.671875 -0.625 C 6.191406 -0.207031 5.539062 0 4.71875 0 Z M 2.109375 -0.6875 L 4.703125 -0.6875 C 5.316406 -0.6875 5.789062 -0.832031 6.125 -1.125 C 6.46875 -1.414062 6.640625 -1.820312 6.640625 -2.34375 C 6.640625 -2.863281 6.46875 -3.265625 6.125 -3.546875 C 5.78125 -3.835938 5.289062 -3.984375 4.65625 -3.984375 L 2.109375 -3.984375 Z M 2.109375 -4.65625 L 4.5625 -4.65625 C 5.144531 -4.65625 5.597656 -4.789062 5.921875 -5.0625 C 6.242188 -5.34375 6.40625 -5.726562 6.40625 -6.21875 C 6.40625 -6.707031 6.242188 -7.085938 5.921875 -7.359375 C 5.597656 -7.640625 5.148438 -7.78125 4.578125 -7.78125 L 2.109375 -7.78125 Z M 2.109375 -4.65625 "/></g></g></g><g fill="#000000" fill-opacity="1"><g transform="translate(140.066057, 253.279245)"><g><path d="M 0.265625 0 L 3.78125 -8.46875 L 4.484375 -8.46875 L 7.984375 0 L 7.21875 0 L 6.328125 -2.125 L 1.921875 -2.125 L 1.046875 0 Z M 2.21875 -2.8125 L 6.046875 -2.8125 L 4.125 -7.46875 Z M 2.21875 -2.8125 "/></g></g></g><g fill="#000000" fill-opacity="1"><g transform="translate(149.438738, 253.279245)"><g><path d="M 1.375 0 L 1.375 -8.46875 L 4.5 -8.46875 C 5.070312 -8.46875 5.566406 -8.359375 5.984375 -8.140625 C 6.410156 -7.929688 6.738281 -7.628906 6.96875 -7.234375 C 7.207031 -6.835938 7.328125 -6.375 7.328125 -5.84375 C 7.328125 -5.132812 7.128906 -4.550781 6.734375 -4.09375 C 6.347656 -3.644531 5.820312 -3.363281 5.15625 -3.25 L 7.453125 0 L 6.578125 0 L 4.296875 -3.1875 L 2.109375 -3.1875 L 2.109375 0 Z M 2.109375 -3.890625 L 4.4375 -3.890625 C 5.101562 -3.890625 5.625 -4.0625 6 -4.40625 C 6.382812 -4.75 6.578125 -5.226562 6.578125 -5.84375 C 6.578125 -6.4375 6.382812 -6.90625 6 -7.25 C 5.625 -7.601562 5.101562 -7.78125 4.4375 -7.78125 L 2.109375 -7.78125 Z M 2.109375 -3.890625 "/></g></g></g><g fill="#000000" fill-opacity="1"><g transform="translate(158.823523, 253.279245)"><g><path d="M 1.375 0 L 1.375 -8.46875 L 4.59375 -8.46875 C 5.375 -8.46875 5.992188 -8.269531 6.453125 -7.875 C 6.921875 -7.476562 7.15625 -6.941406 7.15625 -6.265625 C 7.15625 -5.804688 7.039062 -5.410156 6.8125 -5.078125 C 6.582031 -4.753906 6.257812 -4.519531 5.84375 -4.375 C 6.34375 -4.226562 6.726562 -3.976562 7 -3.625 C 7.269531 -3.269531 7.40625 -2.832031 7.40625 -2.3125 C 7.40625 -1.601562 7.160156 -1.039062 6.671875 -0.625 C 6.191406 -0.207031 5.539062 0 4.71875 0 Z M 2.109375 -0.6875 L 4.703125 -0.6875 C 5.316406 -0.6875 5.789062 -0.832031 6.125 -1.125 C 6.46875 -1.414062 6.640625 -1.820312 6.640625 -2.34375 C 6.640625 -2.863281 6.46875 -3.265625 6.125 -3.546875 C 5.78125 -3.835938 5.289062 -3.984375 4.65625 -3.984375 L 2.109375 -3.984375 Z M 2.109375 -4.65625 L 4.5625 -4.65625 C 5.144531 -4.65625 5.597656 -4.789062 5.921875 -5.0625 C 6.242188 -5.34375 6.40625 -5.726562 6.40625 -6.21875 C 6.40625 -6.707031 6.242188 -7.085938 5.921875 -7.359375 C 5.597656 -7.640625 5.148438 -7.78125 4.578125 -7.78125 L 2.109375 -7.78125 Z M 2.109375 -4.65625 "/></g></g></g><g fill="#000000" fill-opacity="1"><g transform="translate(168.111444, 253.279245)"><g><path d="M 1.375 0 L 1.375 -8.46875 L 6.359375 -8.46875 L 6.359375 -7.78125 L 2.109375 -7.78125 L 2.109375 -4.65625 L 6.046875 -4.65625 L 6.046875 -3.984375 L 2.109375 -3.984375 L 2.109375 -0.6875 L 6.484375 -0.6875 L 6.484375 0 Z M 1.375 0 "/></g></g></g><g fill="#000000" fill-opacity="1"><g transform="translate(176.58812, 253.279245)"><g><path d="M 1.375 0 L 1.375 -8.46875 L 4.5 -8.46875 C 5.070312 -8.46875 5.566406 -8.359375 5.984375 -8.140625 C 6.410156 -7.929688 6.738281 -7.628906 6.96875 -7.234375 C 7.207031 -6.835938 7.328125 -6.375 7.328125 -5.84375 C 7.328125 -5.132812 7.128906 -4.550781 6.734375 -4.09375 C 6.347656 -3.644531 5.820312 -3.363281 5.15625 -3.25 L 7.453125 0 L 6.578125 0 L 4.296875 -3.1875 L 2.109375 -3.1875 L 2.109375 0 Z M 2.109375 -3.890625 L 4.4375 -3.890625 C 5.101562 -3.890625 5.625 -4.0625 6 -4.40625 C 6.382812 -4.75 6.578125 -5.226562 6.578125 -5.84375 C 6.578125 -6.4375 6.382812 -6.90625 6 -7.25 C 5.625 -7.601562 5.101562 -7.78125 4.4375 -7.78125 L 2.109375 -7.78125 Z M 2.109375 -3.890625 "/></g></g></g><g fill="#000000" fill-opacity="1"><g transform="translate(185.972902, 253.279245)"><g/></g></g><g fill="#000000" fill-opacity="1"><g transform="translate(190.32073, 253.279245)"><g><path d="M 4.09375 0.15625 C 3.445312 0.15625 2.882812 0.046875 2.40625 -0.171875 C 1.925781 -0.390625 1.550781 -0.695312 1.28125 -1.09375 C 1.019531 -1.5 0.875 -1.972656 0.84375 -2.515625 L 1.578125 -2.515625 C 1.617188 -1.898438 1.863281 -1.414062 2.3125 -1.0625 C 2.757812 -0.71875 3.351562 -0.546875 4.09375 -0.546875 C 4.789062 -0.546875 5.335938 -0.6875 5.734375 -0.96875 C 6.140625 -1.257812 6.34375 -1.648438 6.34375 -2.140625 C 6.34375 -2.585938 6.15625 -2.945312 5.78125 -3.21875 C 5.414062 -3.5 4.804688 -3.734375 3.953125 -3.921875 C 2.910156 -4.160156 2.15625 -4.46875 1.6875 -4.84375 C 1.21875 -5.226562 0.984375 -5.738281 0.984375 -6.375 C 0.984375 -7.0625 1.238281 -7.609375 1.75 -8.015625 C 2.269531 -8.429688 2.984375 -8.640625 3.890625 -8.640625 C 4.828125 -8.640625 5.5625 -8.410156 6.09375 -7.953125 C 6.632812 -7.503906 6.921875 -6.867188 6.953125 -6.046875 L 6.21875 -6.046875 C 6.1875 -6.648438 5.96875 -7.113281 5.5625 -7.4375 C 5.15625 -7.769531 4.597656 -7.9375 3.890625 -7.9375 C 3.203125 -7.9375 2.664062 -7.789062 2.28125 -7.5 C 1.90625 -7.21875 1.71875 -6.84375 1.71875 -6.375 C 1.71875 -5.957031 1.894531 -5.609375 2.25 -5.328125 C 2.613281 -5.054688 3.238281 -4.816406 4.125 -4.609375 C 5.195312 -4.359375 5.957031 -4.035156 6.40625 -3.640625 C 6.863281 -3.253906 7.09375 -2.757812 7.09375 -2.15625 C 7.09375 -1.445312 6.820312 -0.882812 6.28125 -0.46875 C 5.738281 -0.0507812 5.007812 0.15625 4.09375 0.15625 Z M 4.09375 0.15625 "/></g></g></g><g fill="#000000" fill-opacity="1"><g transform="translate(199.378591, 253.279245)"><g><path d="M 7.078125 0 L 7.078125 -3.96875 L 2.109375 -3.96875 L 2.109375 0 L 1.375 0 L 1.375 -8.46875 L 2.109375 -8.46875 L 2.109375 -4.671875 L 7.078125 -4.671875 L 7.078125 -8.46875 L 7.8125 -8.46875 L 7.8125 0 Z M 7.078125 0 "/></g></g></g><g fill="#000000" fill-opacity="1"><g transform="translate(209.659376, 253.279245)"><g><path d="M 5.140625 0.15625 C 4.285156 0.15625 3.53125 -0.0234375 2.875 -0.390625 C 2.21875 -0.765625 1.703125 -1.28125 1.328125 -1.9375 C 0.960938 -2.601562 0.78125 -3.367188 0.78125 -4.234375 C 0.78125 -5.097656 0.960938 -5.859375 1.328125 -6.515625 C 1.703125 -7.179688 2.21875 -7.703125 2.875 -8.078125 C 3.53125 -8.453125 4.285156 -8.640625 5.140625 -8.640625 C 6.003906 -8.640625 6.765625 -8.453125 7.421875 -8.078125 C 8.085938 -7.703125 8.601562 -7.179688 8.96875 -6.515625 C 9.332031 -5.859375 9.515625 -5.097656 9.515625 -4.234375 C 9.515625 -3.367188 9.332031 -2.601562 8.96875 -1.9375 C 8.601562 -1.28125 8.085938 -0.765625 7.421875 -0.390625 C 6.765625 -0.0234375 6.003906 0.15625 5.140625 0.15625 Z M 1.53125 -4.234375 C 1.53125 -3.515625 1.679688 -2.878906 1.984375 -2.328125 C 2.296875 -1.773438 2.722656 -1.34375 3.265625 -1.03125 C 3.804688 -0.726562 4.429688 -0.578125 5.140625 -0.578125 C 5.859375 -0.578125 6.488281 -0.726562 7.03125 -1.03125 C 7.582031 -1.34375 8.007812 -1.773438 8.3125 -2.328125 C 8.625 -2.878906 8.78125 -3.515625 8.78125 -4.234375 C 8.78125 -4.960938 8.625 -5.597656 8.3125 -6.140625 C 8.007812 -6.691406 7.582031 -7.117188 7.03125 -7.421875 C 6.488281 -7.734375 5.859375 -7.890625 5.140625 -7.890625 C 4.429688 -7.890625 3.804688 -7.734375 3.265625 -7.421875 C 2.722656 -7.117188 2.296875 -6.691406 1.984375 -6.140625 C 1.679688 -5.597656 1.53125 -4.960938 1.53125 -4.234375 Z M 1.53125 -4.234375 "/></g></g></g><g fill="#000000" fill-opacity="1"><g transform="translate(221.0541, 253.279245)"><g><path d="M 1.375 0 L 1.375 -8.46875 L 4.0625 -8.46875 C 5.039062 -8.46875 5.804688 -8.222656 6.359375 -7.734375 C 6.910156 -7.253906 7.1875 -6.570312 7.1875 -5.6875 C 7.1875 -4.8125 6.910156 -4.128906 6.359375 -3.640625 C 5.804688 -3.148438 5.039062 -2.90625 4.0625 -2.90625 L 2.109375 -2.90625 L 2.109375 0 Z M 2.109375 -3.578125 L 4.046875 -3.578125 C 5.640625 -3.578125 6.4375 -4.273438 6.4375 -5.671875 C 6.4375 -7.078125 5.640625 -7.78125 4.046875 -7.78125 L 2.109375 -7.78125 Z M 2.109375 -3.578125 "/></g></g></g><path stroke-linecap="butt" transform="matrix(0.630476, 0, 0, 0.630476, 80.946414, 237.889746)" fill="none" stroke-linejoin="miter" d="M -0.0017477 0.497051 L 313.581852 0.497051 " stroke="#000000" stroke-width="1" stroke-opacity="1" stroke-miterlimit="4"/></svg>