<svg xmlns="http://www.w3.org/2000/svg" xmlns:xlink="http://www.w3.org/1999/xlink" width="500" zoomAndPan="magnify" viewBox="0 0 375 374.999991" height="500" preserveAspectRatio="xMidYMid meet" version="1.0"><defs><g/><clipPath id="ea0223670f"><path d="M 118.570312 53.164062 L 256.417969 53.164062 L 256.417969 233.164062 L 118.570312 233.164062 Z M 118.570312 53.164062 " clip-rule="nonzero"/></clipPath></defs><rect x="-37.5" width="450" fill="#ffffff" y="-37.499999" height="449.999989" fill-opacity="1"/><rect x="-37.5" width="450" fill="#f8f8f8" y="-37.499999" height="449.999989" fill-opacity="1"/><g clip-path="url(#ea0223670f)"><path fill="#000000" d="M 174.90625 145.960938 C 174.527344 149.417969 174.460938 153.382812 176.566406 157.332031 C 174.769531 147.230469 180.726562 143.523438 180.378906 135.945312 C 180.003906 139.554688 178.011719 142.285156 175.089844 142.875 C 172.324219 138.492188 165.976562 144.386719 161.503906 142.722656 C 162.484375 145.207031 164.519531 147.140625 166.824219 148.035156 C 166.480469 147.570312 166.273438 146.996094 166.273438 146.371094 C 166.273438 145.535156 166.644531 144.78125 167.226562 144.273438 C 167.152344 144.488281 167.113281 144.722656 167.113281 144.964844 C 167.113281 146.121094 168.050781 147.058594 169.207031 147.058594 C 170.363281 147.058594 171.304688 146.121094 171.304688 144.964844 C 171.304688 144.875 171.296875 144.789062 171.289062 144.703125 C 171.636719 145.167969 171.839844 145.746094 171.839844 146.371094 C 171.839844 147.203125 171.476562 147.949219 170.898438 148.457031 C 172.238281 148.28125 173.898438 147.390625 174.90625 145.960938 Z M 200.082031 145.960938 C 200.460938 149.417969 200.527344 153.382812 198.421875 157.332031 C 200.222656 147.230469 194.261719 143.523438 194.609375 135.945312 C 194.988281 139.554688 196.976562 142.285156 199.898438 142.875 C 202.667969 138.492188 209.011719 144.386719 213.484375 142.722656 C 212.503906 145.207031 210.46875 147.140625 208.164062 148.035156 C 208.511719 147.570312 208.714844 146.996094 208.714844 146.371094 C 208.714844 145.535156 208.34375 144.78125 207.761719 144.273438 C 207.835938 144.488281 207.878906 144.722656 207.878906 144.964844 C 207.878906 146.121094 206.941406 147.058594 205.78125 147.058594 C 204.625 147.058594 203.6875 146.121094 203.6875 144.964844 C 203.6875 144.875 203.691406 144.789062 203.703125 144.703125 C 203.355469 145.167969 203.148438 145.746094 203.148438 146.371094 C 203.148438 147.203125 203.511719 147.949219 204.089844 148.457031 C 202.75 148.28125 201.089844 147.390625 200.082031 145.960938 Z M 187.496094 119.566406 C 184.628906 112.652344 179.726562 106.882812 173.1875 102.042969 C 178.492188 108.996094 182.015625 116.390625 183.488281 124.296875 C 180.203125 121.492188 174.015625 118.664062 168.222656 118.167969 C 164.339844 125.871094 158.15625 132.609375 151.804688 137.339844 C 148.714844 148.457031 154.007812 161.621094 164.140625 166.300781 C 166.457031 163.363281 163.882812 159.828125 162.613281 156.941406 C 165.058594 160.003906 168.285156 162.464844 167.234375 166.847656 C 166.425781 170.21875 163.527344 173.199219 163.121094 177.214844 C 164.996094 178.523438 167.859375 179.339844 170.71875 179.644531 C 168.0625 180.125 165.484375 180.179688 162.960938 179.90625 C 163.699219 183.257812 166.550781 185.925781 169.621094 187.417969 C 167.808594 187.042969 166.105469 186.496094 164.492188 185.804688 C 167.679688 191.855469 175.3125 194.6875 181.574219 191.785156 C 187.734375 188.933594 187.578125 181.453125 181.429688 178.671875 C 180.308594 178.164062 179.171875 177.90625 178.074219 177.523438 C 174.671875 176.332031 172.414062 173.636719 174.417969 170.058594 C 173.902344 172.089844 174.742188 173.898438 177.324219 173.816406 C 178.105469 173.789062 178.921875 173.667969 179.699219 173.554688 C 182.117188 173.210938 183.183594 173.417969 185.144531 174.894531 C 186.515625 175.929688 188.472656 175.929688 189.847656 174.894531 C 191.804688 173.417969 192.871094 173.210938 195.292969 173.554688 C 196.070312 173.667969 196.882812 173.789062 197.664062 173.816406 C 200.246094 173.898438 201.085938 172.089844 200.570312 170.058594 C 202.574219 173.636719 200.316406 176.332031 196.914062 177.523438 C 195.816406 177.90625 194.679688 178.164062 193.558594 178.671875 C 187.410156 181.453125 187.253906 188.933594 193.414062 191.785156 C 199.675781 194.6875 207.3125 191.855469 210.496094 185.804688 C 208.882812 186.496094 207.183594 187.042969 205.371094 187.417969 C 208.4375 185.925781 211.289062 183.257812 212.027344 179.90625 C 209.503906 180.179688 206.925781 180.125 204.269531 179.644531 C 207.128906 179.339844 209.992188 178.523438 211.867188 177.214844 C 211.460938 173.199219 208.5625 170.21875 207.753906 166.847656 C 206.707031 162.464844 209.929688 160.003906 212.375 156.941406 C 211.105469 159.828125 208.53125 163.363281 210.847656 166.300781 C 220.980469 161.621094 226.273438 148.457031 223.183594 137.339844 C 216.832031 132.609375 210.652344 125.871094 206.769531 118.167969 C 200.972656 118.664062 194.785156 121.492188 191.5 124.296875 C 192.972656 116.390625 196.496094 108.996094 201.800781 102.042969 C 195.261719 106.882812 190.363281 112.652344 187.496094 119.566406 Z M 187.496094 233.375 C 182.695312 225.59375 167.914062 221.050781 167.753906 206.636719 C 165.71875 211.726562 165.9375 216.066406 166.78125 220.199219 C 154.773438 211.285156 149.339844 194.386719 156.519531 180.488281 C 152.863281 176.042969 150.628906 170.808594 150.40625 164.453125 C 149.753906 170.367188 150.585938 175.503906 153.015625 179.800781 C 148.667969 187.375 147.164062 195.8125 148.0625 201.6875 C 141.148438 197.007812 135.917969 189.820312 132.882812 181.542969 C 133.058594 179.960938 133.152344 178.347656 133.152344 176.714844 C 133.152344 167.660156 130.375 159.253906 125.625 152.300781 L 119.164062 159.320312 C 117.488281 152.023438 119.0625 139.976562 127.683594 134.894531 C 139.898438 131.292969 152.132812 125.070312 160.574219 114.644531 C 152.476562 110.183594 145.394531 109.980469 147.339844 122.484375 C 140.683594 125.492188 133.566406 127.5625 126.992188 128.472656 C 130.503906 115.851562 138.375 105.480469 147.910156 100.085938 L 164.054688 104.207031 L 153.128906 96.652344 C 155.308594 95.371094 157.5625 94.222656 159.875 93.210938 L 151.640625 61.519531 L 166.210938 70.800781 C 165.246094 72.203125 164.679688 73.898438 164.679688 75.726562 C 164.679688 80.523438 168.570312 84.414062 173.371094 84.414062 C 178.171875 84.414062 182.0625 80.523438 182.0625 75.726562 C 182.0625 72.433594 180.230469 69.566406 177.53125 68.09375 L 187.496094 53.164062 L 197.460938 68.09375 C 194.757812 69.566406 192.925781 72.433594 192.925781 75.726562 C 192.925781 80.523438 196.816406 84.414062 201.617188 84.414062 C 206.417969 84.414062 210.308594 80.523438 210.308594 75.726562 C 210.308594 73.898438 209.746094 72.203125 208.78125 70.800781 L 223.347656 61.519531 L 215.117188 93.210938 C 217.425781 94.222656 219.679688 95.371094 221.863281 96.652344 L 210.9375 104.207031 L 227.078125 100.085938 C 236.613281 105.480469 244.488281 115.851562 247.996094 128.472656 C 241.421875 127.5625 234.308594 125.492188 227.652344 122.484375 C 229.59375 109.980469 222.511719 110.183594 214.414062 114.644531 C 222.855469 125.070312 235.09375 131.292969 247.304688 134.894531 C 255.925781 139.976562 257.5 152.023438 255.824219 159.320312 L 249.367188 152.300781 C 244.617188 159.253906 241.835938 167.660156 241.835938 176.714844 C 241.835938 178.347656 241.929688 179.960938 242.105469 181.542969 C 239.070312 189.820312 233.839844 197.007812 226.925781 201.6875 C 227.824219 195.8125 226.320312 187.375 221.976562 179.800781 C 224.402344 175.503906 225.234375 170.367188 224.582031 164.453125 C 224.359375 170.808594 222.125 176.042969 218.46875 180.488281 C 225.648438 194.386719 220.214844 211.285156 208.207031 220.199219 C 209.050781 216.066406 209.269531 211.726562 207.238281 206.636719 C 207.074219 221.050781 192.292969 225.59375 187.496094 233.375 Z M 184.476562 193.820312 C 180.640625 195.195312 175.996094 198.351562 171.875 198.636719 C 177.75 211.761719 197.238281 211.761719 203.113281 198.636719 C 198.992188 198.351562 194.347656 195.195312 190.511719 193.820312 C 188.210938 193 186.777344 193 184.476562 193.820312 " fill-opacity="1" fill-rule="evenodd"/></g><g fill="#000000" fill-opacity="1"><g transform="translate(102.905816, 268.07559)"><g><path d="M 0.65625 0 L 0.65625 -0.328125 L 1.3125 -0.5625 C 2.0625 -0.800781 2.4375 -1.425781 2.4375 -2.4375 L 2.4375 -19.28125 C 2.4375 -19.71875 2.382812 -20.066406 2.28125 -20.328125 C 2.1875 -20.597656 1.929688 -20.820312 1.515625 -21 L 0.65625 -21.390625 L 0.65625 -21.71875 L 7.015625 -21.71875 L 13.09375 -5.796875 L 18.828125 -21.71875 L 25.3125 -21.71875 L 25.3125 -21.390625 L 24.78125 -21.1875 C 24.363281 -21.039062 24.078125 -20.828125 23.921875 -20.546875 C 23.765625 -20.273438 23.6875 -19.921875 23.6875 -19.484375 L 23.6875 -2.265625 C 23.6875 -1.828125 23.738281 -1.488281 23.84375 -1.25 C 23.957031 -1.007812 24.222656 -0.800781 24.640625 -0.625 L 25.3125 -0.328125 L 25.3125 0 L 17.109375 0 L 17.109375 -0.328125 L 17.796875 -0.625 C 18.210938 -0.800781 18.472656 -1.007812 18.578125 -1.25 C 18.691406 -1.488281 18.75 -1.828125 18.75 -2.265625 L 18.75 -9.671875 L 18.828125 -19.078125 L 11.9375 0 L 10.296875 0 L 3.125 -18.859375 L 3.21875 -10.65625 L 3.21875 -2.375 C 3.21875 -1.882812 3.289062 -1.488281 3.4375 -1.1875 C 3.582031 -0.894531 3.863281 -0.6875 4.28125 -0.5625 L 5 -0.328125 L 5 0 Z M 0.65625 0 "/></g></g></g><g fill="#000000" fill-opacity="1"><g transform="translate(131.697817, 268.07559)"><g><path d="M 0.265625 0 L 0.265625 -0.328125 L 1.078125 -0.625 C 1.523438 -0.800781 1.867188 -1.015625 2.109375 -1.265625 C 2.347656 -1.515625 2.546875 -1.875 2.703125 -2.34375 L 9.484375 -21.78125 L 12.28125 -21.78125 L 18.953125 -2.203125 C 19.128906 -1.722656 19.328125 -1.351562 19.546875 -1.09375 C 19.765625 -0.84375 20.101562 -0.628906 20.5625 -0.453125 L 20.96875 -0.328125 L 20.96875 0 L 12.609375 0 L 12.609375 -0.328125 L 13.09375 -0.5 C 13.550781 -0.664062 13.828125 -0.910156 13.921875 -1.234375 C 14.023438 -1.554688 14.015625 -1.9375 13.890625 -2.375 L 12.34375 -7.109375 L 5.03125 -7.109375 L 3.453125 -2.46875 C 3.296875 -1.988281 3.242188 -1.601562 3.296875 -1.3125 C 3.359375 -1.03125 3.617188 -0.800781 4.078125 -0.625 L 4.796875 -0.328125 L 4.796875 0 Z M 5.265625 -7.765625 L 12.140625 -7.765625 L 8.8125 -18 Z M 5.265625 -7.765625 "/></g></g></g><g fill="#000000" fill-opacity="1"><g transform="translate(155.850303, 268.07559)"><g><path d="M 0.328125 0 L 0.328125 -0.328125 L 0.890625 -0.5 C 1.347656 -0.644531 1.707031 -0.84375 1.96875 -1.09375 C 2.238281 -1.351562 2.503906 -1.679688 2.765625 -2.078125 L 7.828125 -9.90625 L 2.078125 -19.703125 C 1.859375 -20.078125 1.671875 -20.367188 1.515625 -20.578125 C 1.359375 -20.785156 1.070312 -20.976562 0.65625 -21.15625 L 0.125 -21.390625 L 0.125 -21.71875 L 8.953125 -21.71875 L 8.953125 -21.390625 L 8.1875 -21.15625 C 7.726562 -21 7.476562 -20.753906 7.4375 -20.421875 C 7.394531 -20.097656 7.503906 -19.707031 7.765625 -19.25 L 11.15625 -13.484375 L 14.78125 -19.21875 C 15.0625 -19.675781 15.226562 -20.09375 15.28125 -20.46875 C 15.34375 -20.84375 15.117188 -21.09375 14.609375 -21.21875 L 13.953125 -21.390625 L 13.953125 -21.71875 L 18.53125 -21.71875 L 18.53125 -21.390625 L 17.671875 -21.125 C 17.253906 -21.019531 16.929688 -20.835938 16.703125 -20.578125 C 16.472656 -20.328125 16.238281 -20.015625 16 -19.640625 L 11.578125 -12.765625 L 17.828125 -2.078125 C 18.078125 -1.679688 18.3125 -1.378906 18.53125 -1.171875 C 18.75 -0.960938 19.054688 -0.769531 19.453125 -0.59375 L 20.078125 -0.328125 L 20.078125 0 L 10.859375 0 L 10.859375 -0.328125 L 11.609375 -0.53125 C 12.140625 -0.65625 12.4375 -0.894531 12.5 -1.25 C 12.570312 -1.601562 12.460938 -2.007812 12.171875 -2.46875 L 8.265625 -9.140625 L 3.953125 -2.34375 C 3.660156 -1.894531 3.539062 -1.492188 3.59375 -1.140625 C 3.65625 -0.796875 3.894531 -0.566406 4.3125 -0.453125 L 4.765625 -0.328125 L 4.765625 0 Z M 0.328125 0 "/></g></g></g><g fill="#000000" fill-opacity="1"><g transform="translate(178.818234, 268.07559)"><g><path d="M 0.71875 0 L 0.71875 -0.328125 L 1.375 -0.59375 C 1.820312 -0.75 2.113281 -0.957031 2.25 -1.21875 C 2.394531 -1.476562 2.46875 -1.828125 2.46875 -2.265625 L 2.46875 -19.453125 C 2.46875 -19.890625 2.398438 -20.238281 2.265625 -20.5 C 2.140625 -20.757812 1.84375 -20.96875 1.375 -21.125 L 0.71875 -21.390625 L 0.71875 -21.71875 L 9.1875 -21.71875 L 9.1875 -21.390625 L 8.515625 -21.125 C 8.078125 -20.96875 7.785156 -20.757812 7.640625 -20.5 C 7.503906 -20.238281 7.4375 -19.890625 7.4375 -19.453125 L 7.4375 -2.265625 C 7.4375 -1.828125 7.503906 -1.484375 7.640625 -1.234375 C 7.785156 -0.984375 8.078125 -0.769531 8.515625 -0.59375 L 9.1875 -0.328125 L 9.1875 0 Z M 0.71875 0 "/></g></g></g><g fill="#000000" fill-opacity="1"><g transform="translate(191.487092, 268.07559)"><g><path d="M 0.65625 0 L 0.65625 -0.328125 L 1.3125 -0.5625 C 2.0625 -0.800781 2.4375 -1.425781 2.4375 -2.4375 L 2.4375 -19.28125 C 2.4375 -19.71875 2.382812 -20.066406 2.28125 -20.328125 C 2.1875 -20.597656 1.929688 -20.820312 1.515625 -21 L 0.65625 -21.390625 L 0.65625 -21.71875 L 7.015625 -21.71875 L 13.09375 -5.796875 L 18.828125 -21.71875 L 25.3125 -21.71875 L 25.3125 -21.390625 L 24.78125 -21.1875 C 24.363281 -21.039062 24.078125 -20.828125 23.921875 -20.546875 C 23.765625 -20.273438 23.6875 -19.921875 23.6875 -19.484375 L 23.6875 -2.265625 C 23.6875 -1.828125 23.738281 -1.488281 23.84375 -1.25 C 23.957031 -1.007812 24.222656 -0.800781 24.640625 -0.625 L 25.3125 -0.328125 L 25.3125 0 L 17.109375 0 L 17.109375 -0.328125 L 17.796875 -0.625 C 18.210938 -0.800781 18.472656 -1.007812 18.578125 -1.25 C 18.691406 -1.488281 18.75 -1.828125 18.75 -2.265625 L 18.75 -9.671875 L 18.828125 -19.078125 L 11.9375 0 L 10.296875 0 L 3.125 -18.859375 L 3.21875 -10.65625 L 3.21875 -2.375 C 3.21875 -1.882812 3.289062 -1.488281 3.4375 -1.1875 C 3.582031 -0.894531 3.863281 -0.6875 4.28125 -0.5625 L 5 -0.328125 L 5 0 Z M 0.65625 0 "/></g></g></g><g fill="#000000" fill-opacity="1"><g transform="translate(220.279096, 268.07559)"><g><path d="M 11.03125 0.59375 C 9.6875 0.59375 8.394531 0.351562 7.15625 -0.125 C 5.914062 -0.613281 4.804688 -1.332031 3.828125 -2.28125 C 2.859375 -3.238281 2.085938 -4.429688 1.515625 -5.859375 C 0.941406 -7.285156 0.65625 -8.953125 0.65625 -10.859375 C 0.65625 -12.742188 0.941406 -14.398438 1.515625 -15.828125 C 2.085938 -17.253906 2.863281 -18.441406 3.84375 -19.390625 C 4.832031 -20.347656 5.945312 -21.070312 7.1875 -21.5625 C 8.425781 -22.0625 9.707031 -22.3125 11.03125 -22.3125 C 12.363281 -22.3125 13.648438 -22.070312 14.890625 -21.59375 C 16.128906 -21.125 17.234375 -20.410156 18.203125 -19.453125 C 19.179688 -18.503906 19.957031 -17.3125 20.53125 -15.875 C 21.101562 -14.4375 21.390625 -12.765625 21.390625 -10.859375 C 21.390625 -8.992188 21.101562 -7.34375 20.53125 -5.90625 C 19.957031 -4.46875 19.179688 -3.269531 18.203125 -2.3125 C 17.234375 -1.363281 16.128906 -0.640625 14.890625 -0.140625 C 13.648438 0.347656 12.363281 0.59375 11.03125 0.59375 Z M 11.03125 -0.09375 C 12.226562 -0.09375 13.203125 -0.414062 13.953125 -1.0625 C 14.703125 -1.71875 15.242188 -2.828125 15.578125 -4.390625 C 15.921875 -5.960938 16.09375 -8.117188 16.09375 -10.859375 C 16.09375 -13.617188 15.921875 -15.78125 15.578125 -17.34375 C 15.242188 -18.914062 14.703125 -20.023438 13.953125 -20.671875 C 13.203125 -21.328125 12.226562 -21.65625 11.03125 -21.65625 C 9.84375 -21.65625 8.875 -21.328125 8.125 -20.671875 C 7.382812 -20.023438 6.84375 -18.914062 6.5 -17.34375 C 6.15625 -15.78125 5.984375 -13.617188 5.984375 -10.859375 C 5.984375 -8.117188 6.15625 -5.960938 6.5 -4.390625 C 6.84375 -2.828125 7.382812 -1.71875 8.125 -1.0625 C 8.875 -0.414062 9.84375 -0.09375 11.03125 -0.09375 Z M 11.03125 -0.09375 "/></g></g></g><g fill="#000000" fill-opacity="1"><g transform="translate(245.089676, 268.07559)"><g><path d="M 3.484375 -24.046875 C 4.296875 -24.046875 4.945312 -23.753906 5.4375 -23.171875 C 5.9375 -22.597656 6.1875 -21.835938 6.1875 -20.890625 C 6.1875 -19.660156 5.820312 -18.515625 5.09375 -17.453125 C 4.375 -16.390625 3.476562 -15.597656 2.40625 -15.078125 L 2.203125 -15.46875 C 2.671875 -15.8125 3.078125 -16.257812 3.421875 -16.8125 C 3.773438 -17.363281 4.03125 -18.046875 4.1875 -18.859375 L 3.484375 -19.015625 C 2.722656 -19.191406 2.128906 -19.515625 1.703125 -19.984375 C 1.273438 -20.460938 1.0625 -21.03125 1.0625 -21.6875 C 1.0625 -22.382812 1.296875 -22.953125 1.765625 -23.390625 C 2.234375 -23.828125 2.804688 -24.046875 3.484375 -24.046875 Z M 3.484375 -24.046875 "/></g></g></g><g fill="#000000" fill-opacity="1"><g transform="translate(254.928758, 268.07559)"><g><path d="M 7.796875 0.59375 C 6.585938 0.59375 5.359375 0.441406 4.109375 0.140625 C 2.859375 -0.148438 1.816406 -0.535156 0.984375 -1.015625 L 1.15625 -5.5 L 1.484375 -5.5 L 2.5 -3.359375 C 2.8125 -2.742188 3.140625 -2.195312 3.484375 -1.71875 C 3.835938 -1.25 4.320312 -0.882812 4.9375 -0.625 C 5.375 -0.40625 5.796875 -0.253906 6.203125 -0.171875 C 6.609375 -0.0976562 7.0625 -0.0625 7.5625 -0.0625 C 8.90625 -0.0625 9.960938 -0.421875 10.734375 -1.140625 C 11.515625 -1.867188 11.90625 -2.804688 11.90625 -3.953125 C 11.90625 -5.023438 11.640625 -5.863281 11.109375 -6.46875 C 10.585938 -7.070312 9.75 -7.660156 8.59375 -8.234375 L 7.234375 -8.8125 C 5.347656 -9.644531 3.875 -10.601562 2.8125 -11.6875 C 1.75 -12.78125 1.21875 -14.226562 1.21875 -16.03125 C 1.21875 -17.320312 1.550781 -18.4375 2.21875 -19.375 C 2.882812 -20.320312 3.816406 -21.046875 5.015625 -21.546875 C 6.210938 -22.054688 7.613281 -22.3125 9.21875 -22.3125 C 10.375 -22.3125 11.472656 -22.15625 12.515625 -21.84375 C 13.554688 -21.539062 14.460938 -21.125 15.234375 -20.59375 L 15.03125 -16.65625 L 14.703125 -16.65625 L 13.359375 -19.125 C 12.984375 -19.882812 12.609375 -20.421875 12.234375 -20.734375 C 11.867188 -21.054688 11.441406 -21.285156 10.953125 -21.421875 C 10.671875 -21.503906 10.410156 -21.5625 10.171875 -21.59375 C 9.929688 -21.632812 9.625 -21.65625 9.25 -21.65625 C 8.125 -21.65625 7.175781 -21.328125 6.40625 -20.671875 C 5.644531 -20.023438 5.265625 -19.15625 5.265625 -18.0625 C 5.265625 -16.945312 5.5625 -16.050781 6.15625 -15.375 C 6.75 -14.707031 7.613281 -14.113281 8.75 -13.59375 L 10.265625 -12.9375 C 12.367188 -12.007812 13.878906 -11.023438 14.796875 -9.984375 C 15.722656 -8.941406 16.1875 -7.597656 16.1875 -5.953125 C 16.1875 -4.023438 15.457031 -2.453125 14 -1.234375 C 12.539062 -0.015625 10.472656 0.59375 7.796875 0.59375 Z M 7.796875 0.59375 "/></g></g></g><g fill="#000000" fill-opacity="1"><g transform="translate(129.186071, 295.970847)"><g><path d="M 1.625 0 L 1.625 -10.078125 L 5.453125 -10.078125 C 6.390625 -10.078125 7.132812 -9.835938 7.6875 -9.359375 C 8.238281 -8.890625 8.515625 -8.257812 8.515625 -7.46875 C 8.515625 -6.914062 8.375 -6.441406 8.09375 -6.046875 C 7.820312 -5.648438 7.441406 -5.367188 6.953125 -5.203125 C 7.546875 -5.023438 8 -4.722656 8.3125 -4.296875 C 8.632812 -3.878906 8.796875 -3.363281 8.796875 -2.75 C 8.796875 -1.90625 8.507812 -1.234375 7.9375 -0.734375 C 7.375 -0.242188 6.601562 0 5.625 0 Z M 2.5 -0.828125 L 5.59375 -0.828125 C 6.320312 -0.828125 6.890625 -1 7.296875 -1.34375 C 7.703125 -1.6875 7.90625 -2.164062 7.90625 -2.78125 C 7.90625 -3.40625 7.695312 -3.882812 7.28125 -4.21875 C 6.875 -4.5625 6.296875 -4.734375 5.546875 -4.734375 L 2.5 -4.734375 Z M 2.5 -5.546875 L 5.4375 -5.546875 C 6.125 -5.546875 6.660156 -5.707031 7.046875 -6.03125 C 7.429688 -6.363281 7.625 -6.820312 7.625 -7.40625 C 7.625 -7.976562 7.429688 -8.429688 7.046875 -8.765625 C 6.660156 -9.097656 6.128906 -9.265625 5.453125 -9.265625 L 2.5 -9.265625 Z M 2.5 -5.546875 "/></g></g></g><g fill="#000000" fill-opacity="1"><g transform="translate(140.234767, 295.970847)"><g><path d="M 0.3125 0 L 4.5 -10.078125 L 5.328125 -10.078125 L 9.515625 0 L 8.59375 0 L 7.53125 -2.53125 L 2.296875 -2.53125 L 1.25 0 Z M 2.640625 -3.34375 L 7.203125 -3.34375 L 4.90625 -8.890625 Z M 2.640625 -3.34375 "/></g></g></g><g fill="#000000" fill-opacity="1"><g transform="translate(151.384289, 295.970847)"><g><path d="M 1.625 0 L 1.625 -10.078125 L 5.359375 -10.078125 C 6.035156 -10.078125 6.625 -9.945312 7.125 -9.6875 C 7.625 -9.4375 8.015625 -9.078125 8.296875 -8.609375 C 8.578125 -8.140625 8.71875 -7.582031 8.71875 -6.9375 C 8.71875 -6.101562 8.484375 -5.414062 8.015625 -4.875 C 7.554688 -4.332031 6.929688 -3.992188 6.140625 -3.859375 L 8.875 0 L 7.828125 0 L 5.109375 -3.78125 L 2.5 -3.78125 L 2.5 0 Z M 2.5 -4.625 L 5.265625 -4.625 C 6.066406 -4.625 6.691406 -4.828125 7.140625 -5.234375 C 7.597656 -5.648438 7.828125 -6.21875 7.828125 -6.9375 C 7.828125 -7.65625 7.597656 -8.21875 7.140625 -8.625 C 6.691406 -9.039062 6.066406 -9.25 5.265625 -9.25 L 2.5 -9.25 Z M 2.5 -4.625 "/></g></g></g><g fill="#000000" fill-opacity="1"><g transform="translate(162.548209, 295.970847)"><g><path d="M 1.625 0 L 1.625 -10.078125 L 5.453125 -10.078125 C 6.390625 -10.078125 7.132812 -9.835938 7.6875 -9.359375 C 8.238281 -8.890625 8.515625 -8.257812 8.515625 -7.46875 C 8.515625 -6.914062 8.375 -6.441406 8.09375 -6.046875 C 7.820312 -5.648438 7.441406 -5.367188 6.953125 -5.203125 C 7.546875 -5.023438 8 -4.722656 8.3125 -4.296875 C 8.632812 -3.878906 8.796875 -3.363281 8.796875 -2.75 C 8.796875 -1.90625 8.507812 -1.234375 7.9375 -0.734375 C 7.375 -0.242188 6.601562 0 5.625 0 Z M 2.5 -0.828125 L 5.59375 -0.828125 C 6.320312 -0.828125 6.890625 -1 7.296875 -1.34375 C 7.703125 -1.6875 7.90625 -2.164062 7.90625 -2.78125 C 7.90625 -3.40625 7.695312 -3.882812 7.28125 -4.21875 C 6.875 -4.5625 6.296875 -4.734375 5.546875 -4.734375 L 2.5 -4.734375 Z M 2.5 -5.546875 L 5.4375 -5.546875 C 6.125 -5.546875 6.660156 -5.707031 7.046875 -6.03125 C 7.429688 -6.363281 7.625 -6.820312 7.625 -7.40625 C 7.625 -7.976562 7.429688 -8.429688 7.046875 -8.765625 C 6.660156 -9.097656 6.128906 -9.265625 5.453125 -9.265625 L 2.5 -9.265625 Z M 2.5 -5.546875 "/></g></g></g><g fill="#000000" fill-opacity="1"><g transform="translate(173.596903, 295.970847)"><g><path d="M 1.625 0 L 1.625 -10.078125 L 7.5625 -10.078125 L 7.5625 -9.265625 L 2.5 -9.265625 L 2.5 -5.546875 L 7.1875 -5.546875 L 7.1875 -4.734375 L 2.5 -4.734375 L 2.5 -0.828125 L 7.71875 -0.828125 L 7.71875 0 Z M 1.625 0 "/></g></g></g><g fill="#000000" fill-opacity="1"><g transform="translate(183.680558, 295.970847)"><g><path d="M 1.625 0 L 1.625 -10.078125 L 5.359375 -10.078125 C 6.035156 -10.078125 6.625 -9.945312 7.125 -9.6875 C 7.625 -9.4375 8.015625 -9.078125 8.296875 -8.609375 C 8.578125 -8.140625 8.71875 -7.582031 8.71875 -6.9375 C 8.71875 -6.101562 8.484375 -5.414062 8.015625 -4.875 C 7.554688 -4.332031 6.929688 -3.992188 6.140625 -3.859375 L 8.875 0 L 7.828125 0 L 5.109375 -3.78125 L 2.5 -3.78125 L 2.5 0 Z M 2.5 -4.625 L 5.265625 -4.625 C 6.066406 -4.625 6.691406 -4.828125 7.140625 -5.234375 C 7.597656 -5.648438 7.828125 -6.21875 7.828125 -6.9375 C 7.828125 -7.65625 7.597656 -8.21875 7.140625 -8.625 C 6.691406 -9.039062 6.066406 -9.25 5.265625 -9.25 L 2.5 -9.25 Z M 2.5 -4.625 "/></g></g></g><g fill="#000000" fill-opacity="1"><g transform="translate(194.844475, 295.970847)"><g/></g></g><g fill="#000000" fill-opacity="1"><g transform="translate(200.01655, 295.970847)"><g><path d="M 4.875 0.1875 C 4.101562 0.1875 3.429688 0.0546875 2.859375 -0.203125 C 2.285156 -0.460938 1.835938 -0.832031 1.515625 -1.3125 C 1.203125 -1.789062 1.035156 -2.351562 1.015625 -3 L 1.875 -3 C 1.914062 -2.257812 2.207031 -1.679688 2.75 -1.265625 C 3.289062 -0.847656 4 -0.640625 4.875 -0.640625 C 5.695312 -0.640625 6.347656 -0.8125 6.828125 -1.15625 C 7.304688 -1.5 7.546875 -1.960938 7.546875 -2.546875 C 7.546875 -3.078125 7.320312 -3.507812 6.875 -3.84375 C 6.4375 -4.175781 5.710938 -4.453125 4.703125 -4.671875 C 3.460938 -4.953125 2.5625 -5.316406 2 -5.765625 C 1.445312 -6.222656 1.171875 -6.832031 1.171875 -7.59375 C 1.171875 -8.394531 1.476562 -9.039062 2.09375 -9.53125 C 2.707031 -10.019531 3.550781 -10.265625 4.625 -10.265625 C 5.738281 -10.265625 6.613281 -9.992188 7.25 -9.453125 C 7.894531 -8.921875 8.234375 -8.171875 8.265625 -7.203125 L 7.40625 -7.203125 C 7.363281 -7.910156 7.097656 -8.457031 6.609375 -8.84375 C 6.128906 -9.238281 5.46875 -9.4375 4.625 -9.4375 C 3.8125 -9.4375 3.175781 -9.265625 2.71875 -8.921875 C 2.269531 -8.585938 2.046875 -8.144531 2.046875 -7.59375 C 2.046875 -7.09375 2.257812 -6.675781 2.6875 -6.34375 C 3.113281 -6.007812 3.851562 -5.722656 4.90625 -5.484375 C 6.1875 -5.191406 7.09375 -4.8125 7.625 -4.34375 C 8.164062 -3.875 8.4375 -3.28125 8.4375 -2.5625 C 8.4375 -1.71875 8.113281 -1.046875 7.46875 -0.546875 C 6.832031 -0.0546875 5.96875 0.1875 4.875 0.1875 Z M 4.875 0.1875 "/></g></g></g><g fill="#000000" fill-opacity="1"><g transform="translate(210.791569, 295.970847)"><g><path d="M 8.40625 0 L 8.40625 -4.71875 L 2.5 -4.71875 L 2.5 0 L 1.625 0 L 1.625 -10.078125 L 2.5 -10.078125 L 2.5 -5.5625 L 8.40625 -5.5625 L 8.40625 -10.078125 L 9.296875 -10.078125 L 9.296875 0 Z M 8.40625 0 "/></g></g></g><g fill="#000000" fill-opacity="1"><g transform="translate(223.02135, 295.970847)"><g><path d="M 6.125 0.1875 C 5.101562 0.1875 4.203125 -0.03125 3.421875 -0.46875 C 2.640625 -0.914062 2.023438 -1.53125 1.578125 -2.3125 C 1.140625 -3.101562 0.921875 -4.015625 0.921875 -5.046875 C 0.921875 -6.066406 1.140625 -6.972656 1.578125 -7.765625 C 2.023438 -8.554688 2.640625 -9.171875 3.421875 -9.609375 C 4.203125 -10.046875 5.101562 -10.265625 6.125 -10.265625 C 7.15625 -10.265625 8.0625 -10.046875 8.84375 -9.609375 C 9.625 -9.171875 10.234375 -8.554688 10.671875 -7.765625 C 11.109375 -6.972656 11.328125 -6.066406 11.328125 -5.046875 C 11.328125 -4.015625 11.109375 -3.101562 10.671875 -2.3125 C 10.234375 -1.53125 9.625 -0.914062 8.84375 -0.46875 C 8.0625 -0.03125 7.15625 0.1875 6.125 0.1875 Z M 1.8125 -5.046875 C 1.8125 -4.191406 1.992188 -3.429688 2.359375 -2.765625 C 2.722656 -2.109375 3.226562 -1.597656 3.875 -1.234375 C 4.53125 -0.867188 5.28125 -0.6875 6.125 -0.6875 C 6.976562 -0.6875 7.726562 -0.867188 8.375 -1.234375 C 9.019531 -1.597656 9.523438 -2.109375 9.890625 -2.765625 C 10.253906 -3.429688 10.4375 -4.191406 10.4375 -5.046875 C 10.4375 -5.910156 10.253906 -6.664062 9.890625 -7.3125 C 9.523438 -7.96875 9.019531 -8.476562 8.375 -8.84375 C 7.726562 -9.207031 6.976562 -9.390625 6.125 -9.390625 C 5.28125 -9.390625 4.53125 -9.207031 3.875 -8.84375 C 3.226562 -8.476562 2.722656 -7.96875 2.359375 -7.3125 C 1.992188 -6.664062 1.8125 -5.910156 1.8125 -5.046875 Z M 1.8125 -5.046875 "/></g></g></g><g fill="#000000" fill-opacity="1"><g transform="translate(236.576248, 295.970847)"><g><path d="M 1.625 0 L 1.625 -10.078125 L 4.828125 -10.078125 C 5.992188 -10.078125 6.90625 -9.785156 7.5625 -9.203125 C 8.21875 -8.628906 8.546875 -7.816406 8.546875 -6.765625 C 8.546875 -5.722656 8.21875 -4.910156 7.5625 -4.328125 C 6.90625 -3.742188 5.992188 -3.453125 4.828125 -3.453125 L 2.5 -3.453125 L 2.5 0 Z M 2.5 -4.265625 L 4.8125 -4.265625 C 6.71875 -4.265625 7.671875 -5.09375 7.671875 -6.75 C 7.671875 -8.414062 6.71875 -9.25 4.8125 -9.25 L 2.5 -9.25 Z M 2.5 -4.265625 "/></g></g></g><path stroke-linecap="butt" transform="matrix(0.75, 0, 0, 0.75, 69.907426, 277.663839)" fill="none" stroke-linejoin="miter" d="M -0.00156735 0.500298 L 313.581787 0.500298 " stroke="#000000" stroke-width="1" stroke-opacity="1" stroke-miterlimit="4"/></svg>