<svg xmlns="http://www.w3.org/2000/svg" xmlns:xlink="http://www.w3.org/1999/xlink" width="230" zoomAndPan="magnify" viewBox="0 0 172.5 157.5" height="210" preserveAspectRatio="xMidYMid meet" version="1.0"><defs><g/><clipPath id="dd1ae20f60"><path d="M 46.597656 3.605469 L 129.964844 3.605469 L 129.964844 112.46875 L 46.597656 112.46875 Z M 46.597656 3.605469 " clip-rule="nonzero"/></clipPath></defs><g clip-path="url(#dd1ae20f60)"><path fill="#000000" d="M 80.667969 59.730469 C 80.441406 61.820312 80.398438 64.21875 81.671875 66.605469 C 80.585938 60.496094 84.1875 58.253906 83.976562 53.671875 C 83.75 55.855469 82.546875 57.507812 80.78125 57.863281 C 79.105469 55.214844 75.269531 58.777344 72.5625 57.773438 C 73.15625 59.273438 74.386719 60.441406 75.78125 60.984375 C 75.570312 60.703125 75.449219 60.355469 75.449219 59.976562 C 75.449219 59.472656 75.671875 59.015625 76.023438 58.707031 C 75.980469 58.839844 75.953125 58.980469 75.953125 59.125 C 75.953125 59.828125 76.523438 60.394531 77.222656 60.394531 C 77.921875 60.394531 78.488281 59.828125 78.488281 59.125 C 78.488281 59.074219 78.484375 59.019531 78.480469 58.96875 C 78.691406 59.25 78.816406 59.597656 78.816406 59.976562 C 78.816406 60.480469 78.59375 60.929688 78.246094 61.238281 C 79.054688 61.132812 80.058594 60.59375 80.667969 59.730469 Z M 95.894531 59.730469 C 96.121094 61.820312 96.164062 64.21875 94.890625 66.605469 C 95.976562 60.496094 92.375 58.253906 92.585938 53.671875 C 92.8125 55.855469 94.015625 57.507812 95.78125 57.863281 C 97.457031 55.214844 101.296875 58.777344 104 57.773438 C 103.40625 59.273438 102.175781 60.441406 100.78125 60.984375 C 100.992188 60.703125 101.113281 60.355469 101.113281 59.976562 C 101.113281 59.472656 100.890625 59.015625 100.539062 58.707031 C 100.585938 58.839844 100.609375 58.980469 100.609375 59.125 C 100.609375 59.828125 100.042969 60.394531 99.339844 60.394531 C 98.640625 60.394531 98.074219 59.828125 98.074219 59.125 C 98.074219 59.074219 98.078125 59.019531 98.082031 58.96875 C 97.871094 59.25 97.75 59.597656 97.75 59.976562 C 97.75 60.480469 97.96875 60.929688 98.316406 61.238281 C 97.507812 61.132812 96.503906 60.59375 95.894531 59.730469 Z M 88.28125 43.765625 C 86.546875 39.585938 83.582031 36.097656 79.628906 33.167969 C 82.835938 37.371094 84.96875 41.84375 85.859375 46.628906 C 83.871094 44.929688 80.128906 43.222656 76.625 42.921875 C 74.277344 47.578125 70.539062 51.65625 66.695312 54.515625 C 64.828125 61.238281 68.03125 69.199219 74.15625 72.027344 C 75.558594 70.253906 74 68.117188 73.234375 66.367188 C 74.714844 68.222656 76.664062 69.710938 76.027344 72.359375 C 75.539062 74.398438 73.785156 76.203125 73.542969 78.628906 C 74.675781 79.421875 76.40625 79.917969 78.136719 80.101562 C 76.53125 80.390625 74.96875 80.421875 73.445312 80.257812 C 73.890625 82.285156 75.613281 83.898438 77.472656 84.800781 C 76.375 84.574219 75.347656 84.242188 74.371094 83.824219 C 76.296875 87.484375 80.914062 89.199219 84.699219 87.445312 C 88.425781 85.71875 88.332031 81.191406 84.613281 79.511719 C 83.9375 79.203125 83.25 79.046875 82.585938 78.816406 C 80.527344 78.097656 79.160156 76.46875 80.371094 74.300781 C 80.0625 75.53125 80.570312 76.625 82.128906 76.574219 C 82.601562 76.558594 83.097656 76.484375 83.566406 76.417969 C 85.027344 76.210938 85.675781 76.335938 86.859375 77.226562 C 87.691406 77.855469 88.875 77.855469 89.703125 77.226562 C 90.886719 76.335938 91.535156 76.210938 92.996094 76.417969 C 93.464844 76.484375 93.960938 76.558594 94.433594 76.574219 C 95.992188 76.625 96.5 75.53125 96.1875 74.300781 C 97.402344 76.46875 96.035156 78.097656 93.976562 78.816406 C 93.3125 79.046875 92.625 79.203125 91.949219 79.511719 C 88.230469 81.191406 88.136719 85.71875 91.863281 87.445312 C 95.648438 89.199219 100.265625 87.484375 102.191406 83.824219 C 101.214844 84.242188 100.1875 84.574219 99.09375 84.800781 C 100.949219 83.898438 102.671875 82.285156 103.117188 80.257812 C 101.59375 80.421875 100.03125 80.390625 98.425781 80.101562 C 100.15625 79.917969 101.886719 79.421875 103.019531 78.628906 C 102.777344 76.203125 101.023438 74.398438 100.535156 72.359375 C 99.898438 69.710938 101.847656 68.222656 103.328125 66.367188 C 102.5625 68.117188 101.003906 70.253906 102.40625 72.027344 C 108.53125 69.199219 111.734375 61.238281 109.867188 54.515625 C 106.023438 51.65625 102.285156 47.578125 99.9375 42.921875 C 96.433594 43.222656 92.691406 44.929688 90.703125 46.628906 C 91.59375 41.84375 93.726562 37.371094 96.933594 33.167969 C 92.980469 36.097656 90.015625 39.585938 88.28125 43.765625 Z M 88.28125 112.59375 C 85.378906 107.890625 76.441406 105.144531 76.34375 96.425781 C 75.113281 99.503906 75.242188 102.128906 75.753906 104.625 C 68.492188 99.234375 65.207031 89.015625 69.546875 80.609375 C 67.335938 77.921875 65.988281 74.757812 65.851562 70.910156 C 65.457031 74.488281 65.960938 77.59375 67.429688 80.195312 C 64.800781 84.773438 63.890625 89.878906 64.433594 93.429688 C 60.253906 90.601562 57.089844 86.253906 55.253906 81.25 C 55.359375 80.289062 55.414062 79.316406 55.414062 78.328125 C 55.414062 72.851562 53.734375 67.769531 50.863281 63.5625 L 46.957031 67.808594 C 45.945312 63.394531 46.894531 56.109375 52.109375 53.035156 C 59.496094 50.859375 66.898438 47.09375 72 40.789062 C 67.101562 38.089844 62.820312 37.96875 63.996094 45.53125 C 59.96875 47.351562 55.667969 48.601562 51.691406 49.152344 C 53.8125 41.519531 58.574219 35.246094 64.34375 31.984375 L 74.105469 34.476562 L 67.496094 29.910156 C 68.816406 29.132812 70.179688 28.4375 71.578125 27.828125 L 66.597656 8.660156 L 75.410156 14.273438 C 74.824219 15.121094 74.484375 16.148438 74.484375 17.253906 C 74.484375 20.15625 76.835938 22.507812 79.738281 22.507812 C 82.644531 22.507812 84.996094 20.15625 84.996094 17.253906 C 84.996094 15.261719 83.886719 13.527344 82.253906 12.636719 L 88.28125 3.605469 L 94.308594 12.636719 C 92.675781 13.527344 91.566406 15.261719 91.566406 17.253906 C 91.566406 20.15625 93.917969 22.507812 96.824219 22.507812 C 99.726562 22.507812 102.078125 20.15625 102.078125 17.253906 C 102.078125 16.148438 101.738281 15.121094 101.152344 14.273438 L 109.964844 8.660156 L 104.984375 27.828125 C 106.382812 28.4375 107.746094 29.132812 109.066406 29.910156 L 102.457031 34.476562 L 112.21875 31.984375 C 117.988281 35.246094 122.75 41.519531 124.871094 49.152344 C 120.894531 48.601562 116.59375 47.351562 112.566406 45.53125 C 113.742188 37.96875 109.460938 38.089844 104.5625 40.789062 C 109.667969 47.09375 117.066406 50.859375 124.453125 53.035156 C 129.667969 56.109375 130.621094 63.394531 129.605469 67.808594 L 125.699219 63.5625 C 122.828125 67.769531 121.148438 72.851562 121.148438 78.328125 C 121.148438 79.316406 121.203125 80.289062 121.308594 81.25 C 119.472656 86.253906 116.308594 90.601562 112.128906 93.429688 C 112.671875 89.878906 111.761719 84.773438 109.132812 80.195312 C 110.601562 77.59375 111.105469 74.488281 110.710938 70.910156 C 110.574219 74.757812 109.226562 77.921875 107.015625 80.609375 C 111.355469 89.015625 108.070312 99.234375 100.808594 104.625 C 101.320312 102.128906 101.449219 99.503906 100.222656 96.425781 C 100.121094 105.144531 91.183594 107.890625 88.28125 112.59375 Z M 86.457031 88.671875 C 84.136719 89.503906 81.328125 91.414062 78.835938 91.585938 C 82.386719 99.523438 94.175781 99.523438 97.726562 91.585938 C 95.234375 91.414062 92.425781 89.503906 90.105469 88.671875 C 88.714844 88.175781 87.847656 88.175781 86.457031 88.671875 " fill-opacity="1" fill-rule="evenodd"/></g><g fill="#000000" fill-opacity="1"><g transform="translate(37.123892, 133.581377)"><g><path d="M 0.390625 0 L 0.390625 -0.203125 L 0.796875 -0.34375 C 1.242188 -0.488281 1.46875 -0.863281 1.46875 -1.46875 L 1.46875 -11.671875 C 1.46875 -11.929688 1.4375 -12.140625 1.375 -12.296875 C 1.320312 -12.460938 1.171875 -12.597656 0.921875 -12.703125 L 0.390625 -12.9375 L 0.390625 -13.140625 L 4.234375 -13.140625 L 7.921875 -3.5 L 11.390625 -13.140625 L 15.3125 -13.140625 L 15.3125 -12.9375 L 14.984375 -12.8125 C 14.734375 -12.726562 14.5625 -12.601562 14.46875 -12.4375 C 14.375 -12.269531 14.328125 -12.050781 14.328125 -11.78125 L 14.328125 -1.375 C 14.328125 -1.101562 14.359375 -0.894531 14.421875 -0.75 C 14.492188 -0.601562 14.65625 -0.476562 14.90625 -0.375 L 15.3125 -0.203125 L 15.3125 0 L 10.34375 0 L 10.34375 -0.203125 L 10.765625 -0.375 C 11.015625 -0.476562 11.171875 -0.601562 11.234375 -0.75 C 11.304688 -0.894531 11.34375 -1.101562 11.34375 -1.375 L 11.34375 -5.859375 L 11.390625 -11.546875 L 7.21875 0 L 6.234375 0 L 1.890625 -11.40625 L 1.953125 -6.453125 L 1.953125 -1.4375 C 1.953125 -1.144531 1.992188 -0.90625 2.078125 -0.71875 C 2.160156 -0.539062 2.332031 -0.414062 2.59375 -0.34375 L 3.03125 -0.203125 L 3.03125 0 Z M 0.390625 0 "/></g></g></g><g fill="#000000" fill-opacity="1"><g transform="translate(54.536684, 133.581377)"><g><path d="M 0.15625 0 L 0.15625 -0.203125 L 0.65625 -0.375 C 0.925781 -0.476562 1.132812 -0.609375 1.28125 -0.765625 C 1.425781 -0.921875 1.539062 -1.132812 1.625 -1.40625 L 5.734375 -13.171875 L 7.421875 -13.171875 L 11.46875 -1.328125 C 11.570312 -1.035156 11.6875 -0.8125 11.8125 -0.65625 C 11.945312 -0.507812 12.15625 -0.382812 12.4375 -0.28125 L 12.6875 -0.203125 L 12.6875 0 L 7.625 0 L 7.625 -0.203125 L 7.921875 -0.296875 C 8.203125 -0.398438 8.367188 -0.546875 8.421875 -0.734375 C 8.484375 -0.929688 8.476562 -1.164062 8.40625 -1.4375 L 7.46875 -4.296875 L 3.046875 -4.296875 L 2.09375 -1.5 C 2 -1.207031 1.96875 -0.972656 2 -0.796875 C 2.03125 -0.617188 2.1875 -0.476562 2.46875 -0.375 L 2.90625 -0.203125 L 2.90625 0 Z M 3.1875 -4.703125 L 7.34375 -4.703125 L 5.328125 -10.890625 Z M 3.1875 -4.703125 "/></g></g></g><g fill="#000000" fill-opacity="1"><g transform="translate(69.143596, 133.581377)"><g><path d="M 0.203125 0 L 0.203125 -0.203125 L 0.53125 -0.296875 C 0.8125 -0.390625 1.03125 -0.507812 1.1875 -0.65625 C 1.351562 -0.8125 1.515625 -1.007812 1.671875 -1.25 L 4.734375 -5.984375 L 1.25 -11.921875 C 1.125 -12.148438 1.015625 -12.328125 0.921875 -12.453125 C 0.828125 -12.578125 0.648438 -12.691406 0.390625 -12.796875 L 0.078125 -12.9375 L 0.078125 -13.140625 L 5.421875 -13.140625 L 5.421875 -12.9375 L 4.953125 -12.796875 C 4.671875 -12.703125 4.515625 -12.554688 4.484375 -12.359375 C 4.460938 -12.160156 4.535156 -11.921875 4.703125 -11.640625 L 6.75 -8.15625 L 8.9375 -11.625 C 9.113281 -11.90625 9.21875 -12.15625 9.25 -12.375 C 9.28125 -12.601562 9.144531 -12.757812 8.84375 -12.84375 L 8.4375 -12.9375 L 8.4375 -13.140625 L 11.203125 -13.140625 L 11.203125 -12.9375 L 10.6875 -12.78125 C 10.4375 -12.71875 10.238281 -12.609375 10.09375 -12.453125 C 9.957031 -12.296875 9.816406 -12.109375 9.671875 -11.890625 L 7 -7.71875 L 10.796875 -1.25 C 10.941406 -1.007812 11.078125 -0.828125 11.203125 -0.703125 C 11.335938 -0.578125 11.523438 -0.460938 11.765625 -0.359375 L 12.140625 -0.203125 L 12.140625 0 L 6.5625 0 L 6.5625 -0.203125 L 7.03125 -0.3125 C 7.34375 -0.394531 7.519531 -0.539062 7.5625 -0.75 C 7.601562 -0.96875 7.535156 -1.21875 7.359375 -1.5 L 5 -5.53125 L 2.390625 -1.40625 C 2.210938 -1.144531 2.140625 -0.90625 2.171875 -0.6875 C 2.210938 -0.476562 2.359375 -0.34375 2.609375 -0.28125 L 2.890625 -0.203125 L 2.890625 0 Z M 0.203125 0 "/></g></g></g><g fill="#000000" fill-opacity="1"><g transform="translate(83.034114, 133.581377)"><g><path d="M 0.4375 0 L 0.4375 -0.203125 L 0.84375 -0.359375 C 1.101562 -0.453125 1.273438 -0.578125 1.359375 -0.734375 C 1.453125 -0.890625 1.5 -1.101562 1.5 -1.375 L 1.5 -11.765625 C 1.5 -12.023438 1.457031 -12.234375 1.375 -12.390625 C 1.289062 -12.554688 1.113281 -12.6875 0.84375 -12.78125 L 0.4375 -12.9375 L 0.4375 -13.140625 L 5.546875 -13.140625 L 5.546875 -12.9375 L 5.15625 -12.78125 C 4.882812 -12.6875 4.707031 -12.554688 4.625 -12.390625 C 4.539062 -12.234375 4.5 -12.023438 4.5 -11.765625 L 4.5 -1.375 C 4.5 -1.101562 4.539062 -0.890625 4.625 -0.734375 C 4.707031 -0.585938 4.882812 -0.460938 5.15625 -0.359375 L 5.546875 -0.203125 L 5.546875 0 Z M 0.4375 0 "/></g></g></g><g fill="#000000" fill-opacity="1"><g transform="translate(90.695971, 133.581377)"><g><path d="M 0.390625 0 L 0.390625 -0.203125 L 0.796875 -0.34375 C 1.242188 -0.488281 1.46875 -0.863281 1.46875 -1.46875 L 1.46875 -11.671875 C 1.46875 -11.929688 1.4375 -12.140625 1.375 -12.296875 C 1.320312 -12.460938 1.171875 -12.597656 0.921875 -12.703125 L 0.390625 -12.9375 L 0.390625 -13.140625 L 4.234375 -13.140625 L 7.921875 -3.5 L 11.390625 -13.140625 L 15.3125 -13.140625 L 15.3125 -12.9375 L 14.984375 -12.8125 C 14.734375 -12.726562 14.5625 -12.601562 14.46875 -12.4375 C 14.375 -12.269531 14.328125 -12.050781 14.328125 -11.78125 L 14.328125 -1.375 C 14.328125 -1.101562 14.359375 -0.894531 14.421875 -0.75 C 14.492188 -0.601562 14.65625 -0.476562 14.90625 -0.375 L 15.3125 -0.203125 L 15.3125 0 L 10.34375 0 L 10.34375 -0.203125 L 10.765625 -0.375 C 11.015625 -0.476562 11.171875 -0.601562 11.234375 -0.75 C 11.304688 -0.894531 11.34375 -1.101562 11.34375 -1.375 L 11.34375 -5.859375 L 11.390625 -11.546875 L 7.21875 0 L 6.234375 0 L 1.890625 -11.40625 L 1.953125 -6.453125 L 1.953125 -1.4375 C 1.953125 -1.144531 1.992188 -0.90625 2.078125 -0.71875 C 2.160156 -0.539062 2.332031 -0.414062 2.59375 -0.34375 L 3.03125 -0.203125 L 3.03125 0 Z M 0.390625 0 "/></g></g></g><g fill="#000000" fill-opacity="1"><g transform="translate(108.108765, 133.581377)"><g><path d="M 6.671875 0.359375 C 5.859375 0.359375 5.078125 0.210938 4.328125 -0.078125 C 3.578125 -0.367188 2.90625 -0.800781 2.3125 -1.375 C 1.726562 -1.957031 1.257812 -2.679688 0.90625 -3.546875 C 0.5625 -4.410156 0.390625 -5.414062 0.390625 -6.5625 C 0.390625 -7.707031 0.5625 -8.710938 0.90625 -9.578125 C 1.257812 -10.441406 1.734375 -11.160156 2.328125 -11.734375 C 2.921875 -12.304688 3.59375 -12.742188 4.34375 -13.046875 C 5.09375 -13.347656 5.867188 -13.5 6.671875 -13.5 C 7.484375 -13.5 8.257812 -13.351562 9 -13.0625 C 9.75 -12.78125 10.421875 -12.347656 11.015625 -11.765625 C 11.609375 -11.191406 12.078125 -10.46875 12.421875 -9.59375 C 12.765625 -8.726562 12.9375 -7.71875 12.9375 -6.5625 C 12.9375 -5.4375 12.765625 -4.4375 12.421875 -3.5625 C 12.078125 -2.695312 11.609375 -1.972656 11.015625 -1.390625 C 10.421875 -0.816406 9.75 -0.378906 9 -0.078125 C 8.257812 0.210938 7.484375 0.359375 6.671875 0.359375 Z M 6.671875 -0.0625 C 7.398438 -0.0625 7.988281 -0.253906 8.4375 -0.640625 C 8.882812 -1.035156 9.210938 -1.707031 9.421875 -2.65625 C 9.628906 -3.601562 9.734375 -4.90625 9.734375 -6.5625 C 9.734375 -8.238281 9.628906 -9.550781 9.421875 -10.5 C 9.210938 -11.445312 8.882812 -12.113281 8.4375 -12.5 C 7.988281 -12.894531 7.398438 -13.09375 6.671875 -13.09375 C 5.953125 -13.09375 5.363281 -12.894531 4.90625 -12.5 C 4.457031 -12.113281 4.128906 -11.445312 3.921875 -10.5 C 3.722656 -9.550781 3.625 -8.238281 3.625 -6.5625 C 3.625 -4.90625 3.722656 -3.601562 3.921875 -2.65625 C 4.128906 -1.707031 4.457031 -1.035156 4.90625 -0.640625 C 5.363281 -0.253906 5.953125 -0.0625 6.671875 -0.0625 Z M 6.671875 -0.0625 "/></g></g></g><g fill="#000000" fill-opacity="1"><g transform="translate(123.113678, 133.581377)"><g><path d="M 2.109375 -14.5625 C 2.597656 -14.5625 2.992188 -14.382812 3.296875 -14.03125 C 3.597656 -13.675781 3.75 -13.210938 3.75 -12.640625 C 3.75 -11.898438 3.53125 -11.207031 3.09375 -10.5625 C 2.65625 -9.914062 2.109375 -9.4375 1.453125 -9.125 L 1.328125 -9.359375 C 1.609375 -9.566406 1.851562 -9.835938 2.0625 -10.171875 C 2.28125 -10.503906 2.4375 -10.914062 2.53125 -11.40625 L 2.109375 -11.515625 C 1.648438 -11.617188 1.289062 -11.8125 1.03125 -12.09375 C 0.769531 -12.382812 0.640625 -12.726562 0.640625 -13.125 C 0.640625 -13.550781 0.78125 -13.894531 1.0625 -14.15625 C 1.351562 -14.425781 1.703125 -14.5625 2.109375 -14.5625 Z M 2.109375 -14.5625 "/></g></g></g><g fill="#000000" fill-opacity="1"><g transform="translate(129.064146, 133.581377)"><g><path d="M 4.71875 0.359375 C 3.988281 0.359375 3.242188 0.269531 2.484375 0.09375 C 1.734375 -0.0820312 1.101562 -0.316406 0.59375 -0.609375 L 0.703125 -3.328125 L 0.890625 -3.328125 L 1.515625 -2.03125 C 1.703125 -1.65625 1.898438 -1.320312 2.109375 -1.03125 C 2.316406 -0.75 2.609375 -0.53125 2.984375 -0.375 C 3.253906 -0.238281 3.507812 -0.148438 3.75 -0.109375 C 4 -0.0664062 4.273438 -0.046875 4.578125 -0.046875 C 5.390625 -0.046875 6.03125 -0.265625 6.5 -0.703125 C 6.96875 -1.140625 7.203125 -1.703125 7.203125 -2.390625 C 7.203125 -3.035156 7.039062 -3.539062 6.71875 -3.90625 C 6.40625 -4.269531 5.898438 -4.628906 5.203125 -4.984375 L 4.375 -5.328125 C 3.238281 -5.835938 2.347656 -6.421875 1.703125 -7.078125 C 1.054688 -7.734375 0.734375 -8.601562 0.734375 -9.6875 C 0.734375 -10.476562 0.9375 -11.15625 1.34375 -11.71875 C 1.75 -12.289062 2.3125 -12.726562 3.03125 -13.03125 C 3.757812 -13.34375 4.609375 -13.5 5.578125 -13.5 C 6.273438 -13.5 6.9375 -13.40625 7.5625 -13.21875 C 8.195312 -13.03125 8.75 -12.78125 9.21875 -12.46875 L 9.09375 -10.078125 L 8.890625 -10.078125 L 8.078125 -11.5625 C 7.859375 -12.03125 7.632812 -12.359375 7.40625 -12.546875 C 7.175781 -12.742188 6.914062 -12.878906 6.625 -12.953125 C 6.457031 -13.003906 6.300781 -13.039062 6.15625 -13.0625 C 6.007812 -13.082031 5.820312 -13.09375 5.59375 -13.09375 C 4.914062 -13.09375 4.34375 -12.894531 3.875 -12.5 C 3.414062 -12.113281 3.1875 -11.585938 3.1875 -10.921875 C 3.1875 -10.242188 3.363281 -9.703125 3.71875 -9.296875 C 4.082031 -8.898438 4.609375 -8.539062 5.296875 -8.21875 L 6.203125 -7.828125 C 7.484375 -7.265625 8.398438 -6.664062 8.953125 -6.03125 C 9.515625 -5.40625 9.796875 -4.597656 9.796875 -3.609375 C 9.796875 -2.429688 9.351562 -1.472656 8.46875 -0.734375 C 7.582031 -0.00390625 6.332031 0.359375 4.71875 0.359375 Z M 4.71875 0.359375 "/></g></g></g><g fill="#000000" fill-opacity="1"><g transform="translate(53.017632, 150.451819)"><g><path d="M 0.984375 0 L 0.984375 -6.109375 L 3.296875 -6.109375 C 3.867188 -6.109375 4.320312 -5.960938 4.65625 -5.671875 C 4.988281 -5.378906 5.15625 -4.992188 5.15625 -4.515625 C 5.15625 -4.179688 5.070312 -3.894531 4.90625 -3.65625 C 4.738281 -3.414062 4.507812 -3.242188 4.21875 -3.140625 C 4.570312 -3.035156 4.84375 -2.851562 5.03125 -2.59375 C 5.226562 -2.34375 5.328125 -2.035156 5.328125 -1.671875 C 5.328125 -1.148438 5.15625 -0.738281 4.8125 -0.4375 C 4.46875 -0.144531 4 0 3.40625 0 Z M 1.515625 -0.5 L 3.390625 -0.5 C 3.828125 -0.5 4.164062 -0.601562 4.40625 -0.8125 C 4.65625 -1.019531 4.78125 -1.3125 4.78125 -1.6875 C 4.78125 -2.0625 4.65625 -2.351562 4.40625 -2.5625 C 4.15625 -2.769531 3.804688 -2.875 3.359375 -2.875 L 1.515625 -2.875 Z M 1.515625 -3.359375 L 3.28125 -3.359375 C 3.707031 -3.359375 4.035156 -3.457031 4.265625 -3.65625 C 4.492188 -3.851562 4.609375 -4.128906 4.609375 -4.484375 C 4.609375 -4.828125 4.492188 -5.097656 4.265625 -5.296875 C 4.035156 -5.503906 3.710938 -5.609375 3.296875 -5.609375 L 1.515625 -5.609375 Z M 1.515625 -3.359375 "/></g></g></g><g fill="#000000" fill-opacity="1"><g transform="translate(59.699649, 150.451819)"><g><path d="M 0.1875 0 L 2.71875 -6.109375 L 3.21875 -6.109375 L 5.75 0 L 5.203125 0 L 4.5625 -1.53125 L 1.390625 -1.53125 L 0.765625 0 Z M 1.59375 -2.015625 L 4.359375 -2.015625 L 2.96875 -5.375 Z M 1.59375 -2.015625 "/></g></g></g><g fill="#000000" fill-opacity="1"><g transform="translate(66.442644, 150.451819)"><g><path d="M 0.984375 0 L 0.984375 -6.109375 L 3.25 -6.109375 C 3.65625 -6.109375 4.007812 -6.023438 4.3125 -5.859375 C 4.613281 -5.703125 4.847656 -5.484375 5.015625 -5.203125 C 5.191406 -4.921875 5.28125 -4.585938 5.28125 -4.203125 C 5.28125 -3.691406 5.140625 -3.269531 4.859375 -2.9375 C 4.578125 -2.613281 4.195312 -2.414062 3.71875 -2.34375 L 5.375 0 L 4.734375 0 L 3.09375 -2.296875 L 1.515625 -2.296875 L 1.515625 0 Z M 1.515625 -2.796875 L 3.1875 -2.796875 C 3.675781 -2.796875 4.054688 -2.921875 4.328125 -3.171875 C 4.597656 -3.421875 4.734375 -3.765625 4.734375 -4.203125 C 4.734375 -4.628906 4.597656 -4.96875 4.328125 -5.21875 C 4.054688 -5.46875 3.675781 -5.59375 3.1875 -5.59375 L 1.515625 -5.59375 Z M 1.515625 -2.796875 "/></g></g></g><g fill="#000000" fill-opacity="1"><g transform="translate(73.194346, 150.451819)"><g><path d="M 0.984375 0 L 0.984375 -6.109375 L 3.296875 -6.109375 C 3.867188 -6.109375 4.320312 -5.960938 4.65625 -5.671875 C 4.988281 -5.378906 5.15625 -4.992188 5.15625 -4.515625 C 5.15625 -4.179688 5.070312 -3.894531 4.90625 -3.65625 C 4.738281 -3.414062 4.507812 -3.242188 4.21875 -3.140625 C 4.570312 -3.035156 4.84375 -2.851562 5.03125 -2.59375 C 5.226562 -2.34375 5.328125 -2.035156 5.328125 -1.671875 C 5.328125 -1.148438 5.15625 -0.738281 4.8125 -0.4375 C 4.46875 -0.144531 4 0 3.40625 0 Z M 1.515625 -0.5 L 3.390625 -0.5 C 3.828125 -0.5 4.164062 -0.601562 4.40625 -0.8125 C 4.65625 -1.019531 4.78125 -1.3125 4.78125 -1.6875 C 4.78125 -2.0625 4.65625 -2.351562 4.40625 -2.5625 C 4.15625 -2.769531 3.804688 -2.875 3.359375 -2.875 L 1.515625 -2.875 Z M 1.515625 -3.359375 L 3.28125 -3.359375 C 3.707031 -3.359375 4.035156 -3.457031 4.265625 -3.65625 C 4.492188 -3.851562 4.609375 -4.128906 4.609375 -4.484375 C 4.609375 -4.828125 4.492188 -5.097656 4.265625 -5.296875 C 4.035156 -5.503906 3.710938 -5.609375 3.296875 -5.609375 L 1.515625 -5.609375 Z M 1.515625 -3.359375 "/></g></g></g><g fill="#000000" fill-opacity="1"><g transform="translate(79.876362, 150.451819)"><g><path d="M 0.984375 0 L 0.984375 -6.109375 L 4.578125 -6.109375 L 4.578125 -5.609375 L 1.515625 -5.609375 L 1.515625 -3.359375 L 4.34375 -3.359375 L 4.34375 -2.875 L 1.515625 -2.875 L 1.515625 -0.5 L 4.671875 -0.5 L 4.671875 0 Z M 0.984375 0 "/></g></g></g><g fill="#000000" fill-opacity="1"><g transform="translate(85.974743, 150.451819)"><g><path d="M 0.984375 0 L 0.984375 -6.109375 L 3.25 -6.109375 C 3.65625 -6.109375 4.007812 -6.023438 4.3125 -5.859375 C 4.613281 -5.703125 4.847656 -5.484375 5.015625 -5.203125 C 5.191406 -4.921875 5.28125 -4.585938 5.28125 -4.203125 C 5.28125 -3.691406 5.140625 -3.269531 4.859375 -2.9375 C 4.578125 -2.613281 4.195312 -2.414062 3.71875 -2.34375 L 5.375 0 L 4.734375 0 L 3.09375 -2.296875 L 1.515625 -2.296875 L 1.515625 0 Z M 1.515625 -2.796875 L 3.1875 -2.796875 C 3.675781 -2.796875 4.054688 -2.921875 4.328125 -3.171875 C 4.597656 -3.421875 4.734375 -3.765625 4.734375 -4.203125 C 4.734375 -4.628906 4.597656 -4.96875 4.328125 -5.21875 C 4.054688 -5.46875 3.675781 -5.59375 3.1875 -5.59375 L 1.515625 -5.59375 Z M 1.515625 -2.796875 "/></g></g></g><g fill="#000000" fill-opacity="1"><g transform="translate(92.726444, 150.451819)"><g/></g></g><g fill="#000000" fill-opacity="1"><g transform="translate(95.854405, 150.451819)"><g><path d="M 2.953125 0.109375 C 2.484375 0.109375 2.078125 0.03125 1.734375 -0.125 C 1.390625 -0.28125 1.117188 -0.503906 0.921875 -0.796875 C 0.734375 -1.085938 0.628906 -1.425781 0.609375 -1.8125 L 1.140625 -1.8125 C 1.160156 -1.363281 1.332031 -1.015625 1.65625 -0.765625 C 1.988281 -0.515625 2.421875 -0.390625 2.953125 -0.390625 C 3.453125 -0.390625 3.84375 -0.492188 4.125 -0.703125 C 4.414062 -0.910156 4.5625 -1.191406 4.5625 -1.546875 C 4.5625 -1.859375 4.425781 -2.113281 4.15625 -2.3125 C 3.894531 -2.519531 3.457031 -2.691406 2.84375 -2.828125 C 2.09375 -3.003906 1.546875 -3.226562 1.203125 -3.5 C 0.867188 -3.769531 0.703125 -4.132812 0.703125 -4.59375 C 0.703125 -5.082031 0.890625 -5.472656 1.265625 -5.765625 C 1.640625 -6.066406 2.148438 -6.21875 2.796875 -6.21875 C 3.472656 -6.21875 4.003906 -6.050781 4.390625 -5.71875 C 4.773438 -5.394531 4.976562 -4.941406 5 -4.359375 L 4.484375 -4.359375 C 4.460938 -4.785156 4.300781 -5.113281 4 -5.34375 C 3.707031 -5.582031 3.304688 -5.703125 2.796875 -5.703125 C 2.304688 -5.703125 1.921875 -5.597656 1.640625 -5.390625 C 1.367188 -5.191406 1.234375 -4.925781 1.234375 -4.59375 C 1.234375 -4.289062 1.363281 -4.039062 1.625 -3.84375 C 1.882812 -3.644531 2.332031 -3.472656 2.96875 -3.328125 C 3.738281 -3.140625 4.285156 -2.90625 4.609375 -2.625 C 4.941406 -2.34375 5.109375 -1.984375 5.109375 -1.546875 C 5.109375 -1.035156 4.910156 -0.628906 4.515625 -0.328125 C 4.128906 -0.0351562 3.609375 0.109375 2.953125 0.109375 Z M 2.953125 0.109375 "/></g></g></g><g fill="#000000" fill-opacity="1"><g transform="translate(102.370909, 150.451819)"><g><path d="M 5.09375 0 L 5.09375 -2.859375 L 1.515625 -2.859375 L 1.515625 0 L 0.984375 0 L 0.984375 -6.109375 L 1.515625 -6.109375 L 1.515625 -3.359375 L 5.09375 -3.359375 L 5.09375 -6.109375 L 5.625 -6.109375 L 5.625 0 Z M 5.09375 0 "/></g></g></g><g fill="#000000" fill-opacity="1"><g transform="translate(109.767221, 150.451819)"><g><path d="M 3.703125 0.109375 C 3.085938 0.109375 2.539062 -0.0195312 2.0625 -0.28125 C 1.59375 -0.550781 1.222656 -0.925781 0.953125 -1.40625 C 0.691406 -1.882812 0.5625 -2.429688 0.5625 -3.046875 C 0.5625 -3.671875 0.691406 -4.222656 0.953125 -4.703125 C 1.222656 -5.179688 1.59375 -5.550781 2.0625 -5.8125 C 2.539062 -6.082031 3.085938 -6.21875 3.703125 -6.21875 C 4.328125 -6.21875 4.875 -6.082031 5.34375 -5.8125 C 5.820312 -5.550781 6.191406 -5.179688 6.453125 -4.703125 C 6.722656 -4.222656 6.859375 -3.671875 6.859375 -3.046875 C 6.859375 -2.429688 6.722656 -1.882812 6.453125 -1.40625 C 6.191406 -0.925781 5.820312 -0.550781 5.34375 -0.28125 C 4.875 -0.0195312 4.328125 0.109375 3.703125 0.109375 Z M 1.09375 -3.046875 C 1.09375 -2.535156 1.203125 -2.078125 1.421875 -1.671875 C 1.648438 -1.273438 1.957031 -0.96875 2.34375 -0.75 C 2.738281 -0.53125 3.191406 -0.421875 3.703125 -0.421875 C 4.222656 -0.421875 4.675781 -0.53125 5.0625 -0.75 C 5.457031 -0.96875 5.765625 -1.273438 5.984375 -1.671875 C 6.210938 -2.078125 6.328125 -2.535156 6.328125 -3.046875 C 6.328125 -3.578125 6.210938 -4.035156 5.984375 -4.421875 C 5.765625 -4.816406 5.457031 -5.125 5.0625 -5.34375 C 4.675781 -5.570312 4.222656 -5.6875 3.703125 -5.6875 C 3.191406 -5.6875 2.738281 -5.570312 2.34375 -5.34375 C 1.957031 -5.125 1.648438 -4.816406 1.421875 -4.421875 C 1.203125 -4.035156 1.09375 -3.578125 1.09375 -3.046875 Z M 1.09375 -3.046875 "/></g></g></g><g fill="#000000" fill-opacity="1"><g transform="translate(117.964936, 150.451819)"><g><path d="M 0.984375 0 L 0.984375 -6.109375 L 2.921875 -6.109375 C 3.628906 -6.109375 4.179688 -5.929688 4.578125 -5.578125 C 4.972656 -5.222656 5.171875 -4.726562 5.171875 -4.09375 C 5.171875 -3.457031 4.972656 -2.960938 4.578125 -2.609375 C 4.179688 -2.265625 3.628906 -2.09375 2.921875 -2.09375 L 1.515625 -2.09375 L 1.515625 0 Z M 1.515625 -2.578125 L 2.90625 -2.578125 C 4.0625 -2.578125 4.640625 -3.082031 4.640625 -4.09375 C 4.640625 -5.09375 4.0625 -5.59375 2.90625 -5.59375 L 1.515625 -5.59375 Z M 1.515625 -2.578125 "/></g></g></g><path stroke-linecap="butt" transform="matrix(0.453584, 0, 0, 0.453584, 17.167167, 139.38014)" fill="none" stroke-linejoin="miter" d="M 0.00176762 0.496774 L 313.580642 0.496774 " stroke="#000000" stroke-width="1" stroke-opacity="1" stroke-miterlimit="4"/></svg>